<?xml version="1.0" encoding="utf-8"?>
<!-- Generator: Adobe Illustrator 23.1.0, SVG Export Plug-In . SVG Version: 6.00 Build 0)  -->
<svg version="1.1" xmlns="http://www.w3.org/2000/svg" xmlns:xlink="http://www.w3.org/1999/xlink" x="0px" y="0px"
	 viewBox="0 0 295.6 233.4" style="enable-background:new 0 0 295.6 233.4;" xml:space="preserve">
<style type="text/css">
	.st0{opacity:0.1;fill:#C3C1F5;enable-background:new    ;}
	.st1{fill:#C3C1F5;}
	.st2{fill:#444053;}
	.st3{fill:#D5D6DB;}
	.st4{opacity:0.1;enable-background:new    ;}
	.st5{opacity:0.3;fill:#FFFFFF;enable-background:new    ;}
	.st6{fill:#3A3768;}
	.st7{opacity:0.45;fill:#FFFFFF;enable-background:new    ;}
	.st8{fill:url(#SVGID_1_);}
	.st9{fill:#BE6F72;}
	.st10{fill:#3E373A;}
	.st11{fill:#4B4B5B;}
	.st12{opacity:2.000000e-02;enable-background:new    ;}
	.st13{fill:#E7C7CA;}
	.st14{fill:#C3C7D9;}
	.st15{opacity:0.1;}
	.st16{opacity:0.1;fill:none;stroke:#000000;stroke-miterlimit:10;enable-background:new    ;}
	.st17{fill:#FFD037;}
	.st18{fill:#65617D;}
	.st19{fill:#9D9CB5;}
	.st20{fill:#2F2E41;}
	.st21{fill:#FFB8B8;}
	.st22{fill:#D0CDE1;}
	.st23{fill:#F2F2F2;}
</style>
<g id="Chica">
	<title>Recurso 4</title>
	<g id="a206d359-9b0b-45c1-9aa9-7edd273ffbf1">
		<g id="eab712bb-6dbd-4edd-8016-6b4f8b6639a5">
			<path class="st0" d="M174.2,39.4c-18.6-0.6-36.3-6.6-53.2-13.2S87.4,12.4,69.3,8.9c-11.7-2.2-25-2.6-34.4,3.7
				c-9,6-12,16.4-13.5,26c-1.2,7.3-1.9,14.9,1.4,21.7c2.3,4.7,6.2,8.7,9,13.2c9.6,15.7,2.8,35.1-7.6,50.4
				c-4.9,7.2-10.6,14.1-14.3,21.7s-5.5,16.4-2.2,24.2s11.1,13.6,19.5,17.6c17.1,8.3,37.3,10.7,57,12c43.6,3,87.4,1.7,131.1,0.4
				c16.2-0.5,32.4-1,48.3-3.5c8.8-1.4,18-3.6,24.4-8.9c8.2-6.7,10.2-18.1,4.7-26.5c-9.2-14.2-34.5-17.7-40.9-33
				c-3.5-8.4,0.1-17.7,5.2-25.5c11-16.7,29.4-31.3,30.3-50.4c0.7-13.1-8.2-26.2-21.9-32.4c-14.3-6.5-34.2-5.7-44.8,5.1
				C209.7,35.8,190.6,40,174.2,39.4z"/>
			<polygon class="st1" points="127,198.2 28.7,197.7 19,174.8 53.5,172.3 47.5,147.2 115.8,138.4 50.4,115.6 56.2,114.3 
				161.3,131.4 155.5,170.6 147.2,192.1 			"/>
			<path class="st1" d="M28.3,185.1c0,0,6-1,9.7,3.3c0,0-2.7,2.1-8.4-0.8L28.3,185.1z"/>
			<path class="st1" d="M27.6,185c0,0-3.9,4.7-2,10c0,0,3.1-1.3,3.5-7.6L27.6,185z"/>
			<path class="st1" d="M24.2,177.3c0,0,2.4-4.4,12.1,1.8c0,0-1.3,3-5.5,2.7S25.3,179.6,24.2,177.3z"/>
			<path class="st1" d="M23.5,176.9c0,0-5-0.6-5.5,10.9c0,0,3.2,0.6,5.4-3S24.8,179.2,23.5,176.9z"/>
			<path class="st1" d="M20.6,167.8c0,0,2.8-7.8,13-2.3c0,0-2.3,7.1-12,4.9L20.6,167.8z"/>
			<path class="st1" d="M17.5,156.1c0,0,5.3-7.9,14.7-0.6c0,0-3.3,7.4-13.9,3.4L17.5,156.1z"/>
			<path class="st1" d="M16.4,145.1c0,0,6.2-7.2,15.5,0c0,0-5.9,6.4-15.5,1.9V145.1z"/>
			<path class="st1" d="M15.4,134.3c0,0,6.3-7.6,15.2-0.4c0,0-7.1,6.7-15.2,2.2L15.4,134.3z"/>
			<path class="st1" d="M16,124.7c0,0,6.6-9.7,14.9-3.1c0,0-7.1,8.4-14.9,5L16,124.7z"/>
			<path class="st1" d="M17.5,113.6c0,0,7-9.7,15.1-2.3c0,0-8.3,8.3-15.1,4L17.5,113.6z"/>
			<path class="st1" d="M19.8,103.6c0,0,8.3-9.1,15.5-5.4c0,0-8.6,9.6-15.9,7.9L19.8,103.6z"/>
			<path class="st1" d="M22.7,94.1c0,0,9.6-11.1,15.1-7.4c0,0-7,8.6-15.8,9.5L22.7,94.1z"/>
			<path class="st1" d="M28.9,86.1c0,0,8.4-9.1,14.5-6.8c0,0-7.2,9.4-15.6,9.6L28.9,86.1z"/>
			<path class="st1" d="M32.7,75.8c0,0,9.3-8.7,13.3-7.2c0,0-6.7,9.6-13.7,9.1L32.7,75.8z"/>
			<path class="st1" d="M36.4,66.4c0,0,8-10.4,12.3-9.6c0,0-4.8,9.3-12.3,10.6V66.4z"/>
			<path class="st1" d="M40.4,53.6c0,0,7-8,10.8-7.9c0,0-5.5,10.6-11.1,10.5L40.4,53.6z"/>
			<path class="st1" d="M42.8,45.1l6.8-16.6c0,0,0.3,15-7.7,19.6L42.8,45.1z"/>
			<path class="st1" d="M45.5,26.8c0,0,1.1-13.8,0.4-14.9c0,0,4.9,11.5-0.5,21.1L45.5,26.8z"/>
			<path class="st1" d="M20.4,167.6c0,0-7-4.4-11.6,6.3c0,0,6.3,4.2,12.4-3.6L20.4,167.6z"/>
			<path class="st1" d="M17.3,155.7c0,0-8.6-3.9-12.8,7.2c0,0,6.7,4.6,13.6-4.4L17.3,155.7z"/>
			<path class="st1" d="M16,145.7c0,0-6.2-7.2-15.5,0c0,0,5.9,6.4,15.5,1.9V145.7z"/>
			<path class="st1" d="M15.2,134.3c0,0-6.3-7.6-15.2-0.4c0,0,7.1,6.7,15.2,2.2V134.3z"/>
			<path class="st1" d="M16,125c0,0-4.4-10.9-14-6.2c0,0,5.2,9.7,13.6,8L16,125z"/>
			<path class="st1" d="M18,113.5c0,0-4.4-11.1-14-5.9c0,0,5.9,10.2,13.6,7.7L18,113.5z"/>
			<path class="st1" d="M20.8,103.6c0,0-1.8-12.2-9.8-13.2c0,0,1.7,12.8,8.7,15.4L20.8,103.6z"/>
			<path class="st1" d="M22.9,94.1c0,0-0.7-14.6-7.3-15.1c0,0,0.2,11.1,6.6,17.2L22.9,94.1z"/>
			<path class="st1" d="M27.6,82.7c0,0-2-12.2-8.3-13.7c0,0,0.8,11.8,7.7,16.7L27.6,82.7z"/>
			<path class="st1" d="M31.4,72.9c0,0-0.1-12.7-4-14.5c0,0-2.4,11.5,2.8,16.2L31.4,72.9z"/>
			<path class="st1" d="M34.7,63.2c0,0-0.5-13.1-4.6-14.9c0,0-1.4,10.3,4,15.8L34.7,63.2z"/>
			<path class="st1" d="M38.9,51.6c0,0,0-10.6-2.9-13.1c0,0-2.8,11.6,1.4,15.3L38.9,51.6z"/>
			<path class="st1" d="M40.4,41.5l-2.8-17.7c0,0-3.8,14.5,2.9,20.9L40.4,41.5z"/>
			<path class="st1" d="M43,27c0,0-7.2-11.9-7-13.2c0,0,0.8,12.5,9.8,18.7L43,27z"/>
			<path class="st1" d="M43.8,23.5c0,0-6.8-16.9-9.8-18.3c0,0,9.6,4.9,10.4,17.8L43.8,23.5z"/>
			<path class="st2" d="M40.1,56.3l-0.5-0.1c5.7-18.6,7.1-30.4,4-33.4l0.3-0.4C47.2,25.5,45.9,37.2,40.1,56.3z"/>
			<path class="st2" d="M22.4,96.8l-0.7-0.3c0.6-1.7,1.3-3.4,1.9-5.1c5.9-14.8,11-28.6,14.3-39.2l0.6-0.3
				c-3.3,10.6-8.2,24.9-14.2,39.8C23.6,93.3,23,95.1,22.4,96.8z"/>
			<path class="st2" d="M36.7,199c-0.1-0.1-9.3-10.5-15.8-28.3c-3.8-10.4-5.9-21.3-6.2-32.4c-0.4-13.8,2.5-29.2,7.4-43.3l0.5,0.6
				c-11.1,31.5-6.7,58.4-0.8,74.6c6.4,17.6,15.5,27.9,15.6,28L36.7,199z"/>
			<path class="st3" d="M183.1,180c0,0-6.5,7.9-1.3,19.9l-52,22.5l-5,1l-2.3-10l1.6-12.7v-6.9L183.1,180z"/>
			<polygon class="st1" points="19,174.8 90.9,161.7 186.2,176.9 127,198.2 			"/>
			<polygon class="st1" points="19,174.8 90.9,161.7 186.2,176.9 127,198.2 			"/>
			<path class="st1" d="M19,174.8c0,0-6.7,12.7,1,24.5l106.6,23.1c0,0-6.6-10.2,0.4-24.2L19,174.8z"/>
			<path class="st4" d="M19,174.8c0,0-6.7,12.7,1,24.5l106.6,23.1c0,0-6.6-10.2,0.4-24.2L19,174.8z"/>
			<path class="st4" d="M20.2,176.2c0,0-3.8,9.3,0,15.4"/>
			<path class="st1" d="M126.6,222.4l59.5-25.4c0,0,3.3,0.7,1.2,3.1s-59.6,24.7-59.6,24.7L20,199.3L126.6,222.4z"/>
			<path class="st4" d="M126.6,222.4l59.5-25.4c0,0,3.3,0.7,1.2,3.1s-59.6,24.7-59.6,24.7L20,199.3L126.6,222.4z"/>
			<path class="st4" d="M121.8,200.8c0,0-5.7,6.9,0,17.2"/>
			
				<rect x="123.1" y="204.9" transform="matrix(0.9486 -0.3165 0.3165 0.9486 -57.8767 53.8106)" class="st4" width="27.2" height="0.3"/>
			
				<rect x="122.8" y="205.7" transform="matrix(0.9347 -0.3554 0.3554 0.9347 -64.0516 62.955)" class="st4" width="33.1" height="0.3"/>
			
				<rect x="123.4" y="207.8" transform="matrix(0.9257 -0.3782 0.3782 0.9257 -68.0468 69.406)" class="st4" width="38.5" height="0.3"/>
			
				<rect x="122.5" y="207.6" transform="matrix(0.9113 -0.4117 0.4117 0.9113 -72.6984 77.9272)" class="st4" width="44.1" height="0.3"/>
			
				<rect x="122.7" y="208.2" transform="matrix(0.9163 -0.4005 0.4005 0.9163 -71.1369 76.261)" class="st4" width="48.3" height="0.3"/>
			
				<rect x="123.1" y="208.3" transform="matrix(0.918 -0.3965 0.3965 0.918 -70.2129 77.337)" class="st4" width="57.8" height="0.3"/>
			<polygon class="st5" points="45.7,176.2 96.2,165.6 127,171.5 85.6,184.8 			"/>
			<path class="st1" d="M186.2,176.9c0,0,2.6,1.1,1.1,2.7S127,198.2,127,198.2L186.2,176.9z"/>
			<path class="st3" d="M211.6,152.4c0,0-6.5,7.9-1.3,20l-52,22.5l-5,1l-2.3-10l1.6-12.7v-6.9L211.6,152.4z"/>
			<polygon class="st6" points="47.5,147.2 119.4,134.1 214.7,149.3 155.5,170.6 			"/>
			<path class="st6" d="M47.5,147.2c0,0-6.7,12.8,1,24.5l106.6,23.1c0,0-6.6-10.2,0.4-24.2L47.5,147.2z"/>
			<path class="st4" d="M47.5,147.2c0,0-6.7,12.8,1,24.5l106.6,23.1c0,0-6.6-10.2,0.4-24.2l-33.7-7.3L47.5,147.2z"/>
			<path class="st4" d="M50.7,151.6c0,0-3.8,9.3,0,15.4"/>
			<path class="st6" d="M155.1,194.8l59.5-25.4c0,0,3.3,0.7,1.2,3.2s-59.6,24.7-59.6,24.7L48.5,171.7L155.1,194.8z"/>
			<path class="st4" d="M155.1,194.8l59.5-25.4c0,0,3.3,0.7,1.2,3.2s-59.6,24.7-59.6,24.7L48.5,171.7L155.1,194.8z"/>
			<path class="st4" d="M150.3,173.2c0,0-5.7,6.9,0,17.2"/>
			
				<rect x="151.7" y="177.3" transform="matrix(0.9486 -0.3165 0.3165 0.9486 -47.6718 61.4162)" class="st4" width="27.1" height="0.3"/>
			
				<rect x="151.3" y="178.1" transform="matrix(0.9347 -0.3554 0.3554 0.9347 -52.3796 71.2855)" class="st4" width="33.1" height="0.3"/>
			
				<rect x="151.1" y="179.4" transform="matrix(0.9255 -0.3788 0.3788 0.9255 -55.3234 77.8822)" class="st4" width="38.3" height="0.3"/>
			
				<rect x="151" y="180" transform="matrix(0.9113 -0.4117 0.4117 0.9113 -58.8026 87.2141)" class="st4" width="44.1" height="0.3"/>
			
				<rect x="151.2" y="180.6" transform="matrix(0.9163 -0.4005 0.4005 0.9163 -57.6953 85.3675)" class="st4" width="48.3" height="0.3"/>
			
				<rect x="151.6" y="180.7" transform="matrix(0.918 -0.3965 0.3965 0.918 -56.9306 86.3731)" class="st4" width="57.8" height="0.3"/>
			<polygon class="st7" points="74.2,148.6 124.7,138 155.5,143.9 114.1,157.2 			"/>
			<path class="st6" d="M214.7,149.3c0,0,2.6,1.1,1.1,2.7s-60.3,18.6-60.3,18.6L214.7,149.3z"/>
			<path class="st3" d="M214.3,120.8c0,0-6.5,14.2-1.3,26.2l-52,16.2l-5,1.1l-2.3-10.1l1.5-12.7v-6.9L214.3,120.8z"/>
			<polygon class="st1" points="50.2,115.6 122.1,102.5 217.4,117.7 158.2,139 			"/>
			<path class="st1" d="M50.2,115.6c0,0-6.7,12.7,1,24.5l106.6,23.1c0,0-6.6-10.2,0.4-24.2L50.2,115.6z"/>
			<path class="st4" d="M50.2,115.6c0,0-6.7,12.7,1,24.5l106.6,23.1c0,0-6.6-10.2,0.4-24.2L50.2,115.6z"/>
			<path class="st4" d="M53.4,120.1c0,0-3.8,9.3,0,15.4"/>
			<path class="st1" d="M157.9,163.3l59.5-19.1c0,0,3.3,0.7,1.2,3.2S159,165.7,159,165.7L51.2,140.1L157.9,163.3z"/>
			<path class="st4" d="M157.9,163.3l59.5-19.1c0,0,3.3,0.7,1.2,3.2S159,165.7,159,165.7L51.2,140.1L157.9,163.3z"/>
			<path class="st4" d="M153,141.6c0,0-5.7,6.9,0,17.2"/>
			
				<rect x="154.4" y="145.8" transform="matrix(0.9486 -0.3165 0.3165 0.9486 -37.5402 60.6497)" class="st4" width="27.1" height="0.3"/>
			
				<rect x="154" y="146.5" transform="matrix(0.9347 -0.3554 0.3554 0.9347 -40.9797 70.1829)" class="st4" width="33.1" height="0.3"/>
			
				<rect x="153.8" y="147.8" transform="matrix(0.9255 -0.3788 0.3788 0.9255 -43.1567 76.5478)" class="st4" width="38.3" height="0.3"/>
			
				<rect x="153.7" y="148.4" transform="matrix(0.9113 -0.4117 0.4117 0.9113 -45.5636 85.5296)" class="st4" width="44.1" height="0.3"/>
			
				<rect x="153.9" y="149" transform="matrix(0.9163 -0.4005 0.4005 0.9163 -44.82 83.8072)" class="st4" width="48.3" height="0.3"/>
			
				<rect x="154.3" y="149.2" transform="matrix(0.918 -0.3965 0.3965 0.918 -44.1887 84.8579)" class="st4" width="57.8" height="0.3"/>
			<polygon class="st5" points="76.9,117 127.4,106.4 158.2,112.3 116.8,125.6 			"/>
			<path class="st1" d="M217.4,117.7c0,0,2.6,1.1,1.1,2.7S158.2,139,158.2,139L217.4,117.7z"/>
			<path class="st1" d="M91.1,30.6c0,0-10.9-0.7-9.6,7c-0.1,0.8,0.3,1.6,1,2c0,0,0-0.6,1.1-0.4c0.4,0.1,0.8,0.1,1.2,0.1
				c0.5,0,1-0.3,1.4-0.6l0,0c0,0,3.1-1.3,4.3-6.3c0,0,0.9-1.1,0.9-1.4l-1.8,0.8c0.4,0.8,0.4,1.6,0.1,2.4c0,0-0.1-2.4-0.4-2.3
				c-0.1,0-1,0.5-1,0.5s1.1,2.3,0.3,4c0,0,0.3-2.8-0.6-3.8l-1.3,0.8c0,0,1.3,2.4,0.4,4.3c0,0,0.2-3-0.7-4.2l-1.2,0.9
				c0,0,1.2,2.4,0.5,4c0,0-0.1-3.5-0.7-3.8c-0.4,0.4-0.8,0.8-1.2,1.3c0,0,0.8,1.7,0.3,2.6c0,0-0.3-2.3-0.6-2.3
				c-0.5,0.8-0.9,1.7-1.1,2.6c0.1-1,0.4-1.9,0.9-2.8c-0.6,0.1-1.1,0.4-1.6,0.8c0,0,0.2-1.1,1.8-1.2c0.3-0.4,0.7-0.9,1.1-1.2
				c-0.9-0.1-1.8,0-2.7,0.3c0,0,0.9-1,3-0.6l1.1-1c-1-0.2-2.1-0.2-3.1,0c0,0,1.1-0.9,3.4-0.3l1.3-0.8c-1-0.2-2-0.3-3-0.3
				c1.1-0.4,2.3-0.4,3.3,0.1l0.9-0.4c0,0-1.3-0.3-1.8-0.3s-0.4-0.1-0.4-0.1c0.9-0.1,1.7,0,2.6,0.3C89.9,31.1,90.5,30.9,91.1,30.6z"
				/>
			<path class="st0" d="M244.6,62c0,0-10.9-0.7-9.6,7c-0.1,0.8,0.3,1.6,1,2c0,0,0-0.6,1.1-0.4c0.4,0.1,0.8,0.1,1.2,0.1
				c0.5,0,1-0.3,1.4-0.6l0,0c0,0,3.1-1.3,4.3-6.3c0,0,0.9-1.1,0.9-1.4l-1.8,0.8c0.4,0.8,0.4,1.6,0.1,2.4c0,0-0.1-2.4-0.4-2.3
				c-0.1,0-1,0.5-1,0.5s1.1,2.3,0.3,4c0,0,0.3-2.9-0.6-3.8l-1.3,0.8c0,0,1.3,2.4,0.4,4.3c0,0,0.2-3-0.7-4.2l-1.2,0.9
				c0,0,1.2,2.3,0.5,4c0,0-0.1-3.5-0.7-3.8c-0.4,0.4-0.8,0.8-1.2,1.3c0,0,0.8,1.7,0.3,2.6c0,0-0.3-2.3-0.6-2.3
				c-0.5,0.8-0.9,1.7-1.1,2.6c0.1-1,0.4-1.9,0.9-2.7c-0.6,0.1-1.1,0.4-1.6,0.8c0,0,0.2-1.1,1.8-1.2c0.3-0.5,0.7-0.9,1.1-1.3
				c-0.9-0.1-1.8,0-2.7,0.3c0.8-0.7,2-0.9,3-0.6l1.1-1c-1-0.2-2.1-0.2-3.1,0c0,0,1.1-0.9,3.4-0.3l1.3-0.8c-1-0.2-2-0.3-3-0.3
				c1.1-0.4,2.3-0.4,3.3,0l0.9-0.4c0,0-1.4-0.3-1.8-0.3s-0.4-0.2-0.4-0.2c0.9-0.1,1.7,0,2.6,0.3C243.3,62.6,244,62.3,244.6,62z"/>
			<path class="st0" d="M109.5,77.8c0,0-4.8-9.8-10.8-5c-0.8,0.3-1.3,1-1.2,1.8c0,0,0.5-0.3,0.9,0.8c0.1,0.4,0.3,0.7,0.5,1.1
				c0.3,0.5,0.7,0.8,1.2,1l0,0c0,0,2.6,2.1,7.6,0.7c0,0,1.4,0.2,1.6,0.1l-1.6-1.2c-0.5,0.7-1.2,1.1-2.1,1.3c0,0,2.1-1.2,1.8-1.5
				c0-0.1-0.9-0.6-0.9-0.6s-1.5,2.1-3.4,2.2c0,0,2.7-1.1,3-2.4l-1.2-0.8c0,0-1.5,2.3-3.6,2.5c0,0,2.7-1.3,3.3-2.6l-1.4-0.6
				c0,0-1.5,2.2-3.2,2.3c0,0,3-1.8,2.9-2.5c-0.5-0.2-1.1-0.3-1.7-0.4c0,0-1.1,1.6-2.1,1.6c0,0,1.9-1.4,1.8-1.6
				c-0.9-0.1-1.9,0-2.8,0.3c0.9-0.4,1.8-0.6,2.8-0.6c-0.4-0.5-0.9-0.8-1.5-1c0,0,1-0.4,1.9,1c0.5,0.1,1.1,0.2,1.6,0.4
				c-0.4-0.8-0.9-1.6-1.6-2.2c0,0,1.3,0.3,1.9,2.3l1.4,0.6c-0.4-1-0.9-1.9-1.6-2.7c0,0,1.3,0.5,1.9,2.9l1.3,0.7
				c-0.3-1-0.7-1.9-1.2-2.7c0.9,0.7,1.4,1.8,1.6,2.9l0.8,0.6c0,0-0.4-1.3-0.6-1.7s-0.1-0.4-0.1-0.4c0.5,0.7,0.9,1.5,1,2.4
				C108.3,77.1,108.9,77.5,109.5,77.8z"/>
			<path class="st0" d="M219.6,48.1c0,0-4.8-9.8-10.8-5c-0.8,0.3-1.3,1-1.2,1.8c0,0,0.5-0.3,0.9,0.8c0.1,0.4,0.3,0.7,0.5,1.1
				c0.3,0.5,0.7,0.8,1.2,1l0,0c0,0,2.6,2.1,7.6,0.7c0.5,0.1,1.1,0.1,1.6,0.1l-1.6-1.2c-0.5,0.7-1.2,1.1-2.1,1.3c0,0,2.1-1.2,1.8-1.5
				c-0.1-0.1-0.9-0.6-0.9-0.6s-1.5,2.1-3.4,2.2c0,0,2.6-1.1,3-2.4l-1.3-0.8c0,0-1.5,2.3-3.6,2.5c0,0,2.7-1.3,3.3-2.6l-1.4-0.6
				c0,0-1.5,2.2-3.2,2.3c0,0,3-1.8,2.9-2.5c-0.5-0.2-1.1-0.3-1.7-0.4c0,0-1.1,1.5-2.1,1.5c0,0,1.9-1.4,1.8-1.6
				c-0.9-0.1-1.9,0-2.8,0.3c0.9-0.4,1.9-0.6,2.8-0.6c-0.4-0.5-0.9-0.8-1.5-1c0,0,1-0.4,1.9,1c0.5,0,1.1,0.2,1.6,0.3
				c-0.4-0.8-0.9-1.6-1.6-2.2c0,0,1.3,0.3,1.9,2.3l1.4,0.5c-0.4-1-0.9-1.9-1.5-2.7c0,0,1.3,0.5,1.9,2.9l1.3,0.7
				c-0.3-1-0.7-1.9-1.2-2.7c0.9,0.7,1.4,1.8,1.6,2.9l0.8,0.6c0,0-0.4-1.3-0.6-1.7s-0.1-0.4-0.1-0.4c0.5,0.7,0.9,1.5,1,2.4
				C218.5,47.3,219,47.7,219.6,48.1z"/>
			<path class="st0" d="M234.8,96.8c0,0-4.8-9.8-10.8-5c-0.8,0.3-1.3,1-1.3,1.8c0,0,0.5-0.3,0.9,0.8c0.1,0.4,0.3,0.7,0.5,1.1
				c0.3,0.5,0.7,0.8,1.2,1l0,0c0,0,2.6,2.1,7.6,0.7c0,0,1.4,0.2,1.6,0.1L233,96c-0.5,0.7-1.2,1.1-2.1,1.3c0,0,2.1-1.2,1.8-1.5
				c-0.1-0.1-0.9-0.6-0.9-0.6s-1.5,2.1-3.4,2.2c0,0,2.6-1.1,3.1-2.4l-1.3-0.8c0,0-1.5,2.3-3.6,2.5c0,0,2.7-1.3,3.3-2.6l-1.4-0.6
				c0,0-1.5,2.2-3.2,2.3c0,0,3-1.8,2.9-2.4c-0.6-0.2-1.1-0.3-1.7-0.4c0,0-1.1,1.5-2.1,1.5c0,0,1.9-1.4,1.8-1.6
				c-0.9-0.1-1.9,0-2.8,0.3c0.9-0.4,1.9-0.6,2.8-0.6c-0.4-0.5-0.9-0.8-1.5-1c0,0,1-0.4,1.9,1c0.5,0,1.1,0.2,1.6,0.3
				c-0.4-0.8-0.9-1.6-1.6-2.2c0,0,1.3,0.3,1.9,2.3l1.4,0.6c-0.4-1-0.9-1.9-1.5-2.7c0,0,1.3,0.5,1.9,2.9l1.3,0.7
				c-0.3-1-0.7-1.9-1.2-2.7c0.9,0.7,1.4,1.8,1.6,2.9l0.8,0.6c0,0-0.4-1.3-0.6-1.7s-0.1-0.4-0.1-0.4c0.5,0.7,0.9,1.5,1,2.4
				C233.7,96.1,234.2,96.5,234.8,96.8z"/>
			<ellipse class="st0" cx="60" cy="224.4" rx="6.6" ry="0.7"/>
			<ellipse class="st0" cx="14.7" cy="208.8" rx="6.6" ry="0.7"/>
			<ellipse class="st0" cx="92.9" cy="232.7" rx="6.6" ry="0.7"/>
			<ellipse class="st0" cx="261.9" cy="214.5" rx="6.6" ry="0.7"/>
			<ellipse class="st0" cx="207" cy="211" rx="6.6" ry="0.7"/>
			<ellipse class="st0" cx="171.5" cy="227.8" rx="7.8" ry="1.3"/>
			<path class="st1" d="M175,214.3c0,0-10.9,5.6-5.3,12.2c0.3,0.8,1.2,1.4,2.1,1.3c0,0-0.3-0.6,0.9-1c0.4-0.2,0.8-0.4,1.2-0.6
				c0.5-0.3,0.9-0.8,1.1-1.4l0,0c0,0,2.2-3,0.5-8.5c0.1-0.6,0.1-1.2,0-1.8l-1.3,1.8c0.8,0.5,1.3,1.3,1.5,2.3c0,0-1.4-2.3-1.7-2
				c-0.1,0-0.6,1-0.6,1s2.4,1.6,2.5,3.7c0,0-1.3-2.9-2.8-3.3l-0.8,1.5c0,0,2.6,1.6,2.9,3.9c0,0-1.5-3-3-3.6l-0.6,1.6
				c0,0,2.5,1.6,2.7,3.6c0,0-2.1-3.3-2.8-3.2c-0.2,0.6-0.4,1.3-0.4,1.9c0,0,1.8,1.2,1.8,2.3c0,0-1.6-2.1-1.9-1.9
				c-0.1,1.1,0.1,2.1,0.4,3.1c-0.5-1-0.8-2-0.7-3.1c-0.5,0.5-0.8,1-1,1.7c0,0-0.5-1.1,1.1-2.2c0-0.6,0.1-1.2,0.3-1.8
				c-0.9,0.4-1.7,1.1-2.4,1.8c0,0,0.3-1.5,2.5-2.2l0.6-1.6c-1.1,0.4-2.1,1-3,1.8c0,0,0.5-1.5,3.1-2.2l0.8-1.4
				c-1.1,0.3-2.1,0.8-3,1.4c0.8-1,2-1.7,3.2-1.9l0.6-0.9c0,0-1.5,0.5-1.9,0.7s-0.5,0.1-0.5,0.1c0.7-0.6,1.6-1,2.6-1.2
				C174.2,215.6,174.6,215,175,214.3z"/>
			
				<linearGradient id="SVGID_1_" gradientUnits="userSpaceOnUse" x1="247.4761" y1="574.3825" x2="247.4761" y2="430.3262" gradientTransform="matrix(1 0 0 1 -88.58 -430.31)">
				<stop  offset="0" style="stop-color:#808080;stop-opacity:0.25"/>
				<stop  offset="0.54" style="stop-color:#808080;stop-opacity:0.12"/>
				<stop  offset="1" style="stop-color:#808080;stop-opacity:0.1"/>
			</linearGradient>
			<path class="st8" d="M207.2,108.3c-1.9-5.1-12.2-5.6-16.7-4.3c-4.5,1.1-9,1.9-13.5,2.5l-0.2-0.2c0.5-0.1,0.5-0.5,0.4-1
				c0-0.7,0-1.3,0-2c1.5,0.3,3,0,4.2-0.9l0,0c2.6-1.1,1.9-6.1,2.4-7.4c0.4-1,0.8-6.9,1-9.9l0,0v-1c0-0.4,0-0.7,0-0.7
				s0.3-7.2,0.7-8.7s0.8-8.1,0.9-9.2v-0.1v-0.6c0-0.5,0-1,0-1.5c0-2.5-0.3-5.5-0.3-6V57c0-1-0.1-6.3-4.6-8.3l-5.5-2.5
				c-0.5-4.3-1.6-8.5-1.5-12.8c0-0.6,0.1-1.3,0.1-1.9c0,0.2,0,0.4,0,0.6v1.3c0.2-5.4,2.2-10.8,2-16c0,0.5-0.1,1-0.1,1.5
				c0.1-1.8-0.1-3.6-0.6-5.3c-0.1-0.6-0.4-1.2-0.9-1.6c-0.5-0.3-1-0.5-1.6-0.6c-1.4-0.3-2.7-0.6-4.1-0.8c-0.2-0.6-0.5-1.3-0.9-1.8
				c-2.9-4-7.2-7.8-12.3-8.6c-2.6-0.4-5.5-0.1-7.2,1.8c-0.2,0.2-0.4,0.3-0.5,0.5C147.4,3.6,147,5,146,6.1l-0.2,0.2
				c-1.8,1.6-4.7,2-6.8,3.5c-0.4,0.3-0.7,0.6-1,0.9c-0.8,0.8-1.6,1.8-2.3,2.7c-1,1.3-1.8,2.7-2.2,4.3c-0.6,3.2,1.6,6.1,1.9,9.3
				c0.9,7.1-7,13.4-5.5,20.4c0.4,1.7,1.3,3.3,2.5,4.5c-3.1,2.8-5.7,5.5-5.7,5.5v0.2h-0.5l0.1,0.6h-0.1l0.3,3.1l-0.3,4.6v0.4l0,0
				c0.1,1.7,0.4,7.6,0.9,8.9c0.5,1.5,0.7,8.7,0.7,8.7s0.5,10.2,1,11.6s-0.2,6.3,2.4,7.4l0,0c0.8,0.6,1.7,1,2.7,1
				c-0.1,1.1-0.1,1.9,0.4,2.1c0.2,0.1,0.4,0.2,0.6,0.2c-0.2,0.3-0.3,0.5-0.5,0.8c-1-0.1-2-0.3-3-0.7c-2.8-1.2-12-3.7-14.7-1.9
				s-9.2,3.5-6.2,10.8s4.4,7.5,4.4,7.5c0.9,0.7,1.7,1.5,2.4,2.4c0.9,1.3,9.2,4.4,11.3,4.4c0.9,0,1.8,0,2.7,0.1c0,0-2.3,2-2,3.1
				s-0.7,10.4-0.7,10.4s2.3,2.3,3.3-0.7l0,0c0.2,0.3,1.2,1.4,3,0c0.8-0.6,1.6-1.1,2.4-1.5l9.1-1.3c0.9-0.1,1.9-0.1,2.8,0
				c1.4,0,2.7-0.5,3.7-1.4c1.9,0.7,4,1.5,5,1.8c2,0.6,11.4,3.1,13.6,2.3c0.5-0.2,0.9-0.5,1.2-0.8l2.1,0.1l-1,0.2l4.5,0.1l-0.1,0.1
				h3.2c4.7,0,10.1,0.1,10.8-0.1c2.8-0.2,5.7-0.2,8.5,0h0.5c0,0,6.3-1.3,3.7-7.6c-2-4.9-8.1-6.3-10.8-6.7c0.8-0.2,1.4-0.3,1.9-0.3
				c1.9-0.3,5.6-2,5.9-2.6s3.4-2.3,4.2-3.3S209.1,113.4,207.2,108.3z M155.4,122.6l-0.3,0.1l-0.2,0.1l-0.4,0.4l-1-0.7L155.4,122.6z"
				/>
			<path class="st9" d="M173.7,92.3c0,0,4.4,11.5,6.9,10.3s1.8-6,2.3-7.4s1-11.5,1-11.5s0.2-7.2,0.7-8.6s0.8-8.1,0.9-9.1v-0.1
				l-0.4-8.3l-2.7-0.7l-6.2,2.3l-0.9,4.9l-0.4,1.9l-0.1,0.8L173.7,92.3z"/>
			<path class="st4" d="M175.1,90.4c0,0,4.2,3.4,5.4,3.7s2,3,2,3"/>
			<path class="st9" d="M139.3,92.8c0,0-4.4,11.5-6.9,10.3s-1.8-6-2.3-7.4s-1-11.5-1-11.5s-0.2-7.2-0.7-8.6s-0.8-8.1-0.9-9.1v-0.1
				l0.5-8.3l2.7-0.7l6.2,2.3l0.9,4.9l0.3,1.9l0.1,0.8L139.3,92.8z"/>
			<rect x="158.1" y="31.4" class="st10" width="9.8" height="15.3"/>
			<rect x="158.1" y="31.4" class="st4" width="9.8" height="15.3"/>
			<path class="st11" d="M137.6,104.2c0,0-3.4,3.7-2.1,4.3s9.3,13.2,9.3,13.2s26.4,3.3,31.4-1.6s4.9-13.6,4.9-13.6s-4,0.9-4.4,0.4
				s-2.8-2.7-2.8-2.7S139.9,102.2,137.6,104.2z"/>
			<path class="st12" d="M137.6,104.2c0,0-3.4,3.7-2.1,4.3s9.3,13.2,9.3,13.2s26.4,3.3,31.4-1.6s4.9-13.6,4.9-13.6s-4,0.9-4.4,0.4
				s-2.8-2.7-2.8-2.7S139.9,102.2,137.6,104.2z"/>
			<path class="st9" d="M185.1,57.7l-8.6,6.9l-2.6,0.2l-1,0.1l-16,1.2l-16.6-1.2l-2.5-0.2l-3.1-0.2l-6.6-6.3c2.8-3,5.7-5.8,8.8-8.4
				c1.3-1.1,2.7-2.1,4.3-2.8l0.2-0.1c0.7-0.3,1.3-0.7,1.8-1.3c3.2-3.3,6.2-11.6,6.2-11.6s14.3-7.4,12.5,2.3s6.4,7.3,6.4,7.3l2.7,1.2
				l1.1,0.5l2.7,1.2l6.1,2.8C185.5,51.5,185.1,57.7,185.1,57.7z"/>
			<circle class="st4" cx="156.3" cy="29" r="12.8"/>
			<path class="st4" d="M185.2,66.8h-57.6v-0.1l0.5-8.3c2.8-2.9,5.7-5.7,8.8-8.4l36.2-1.5l1.7-1.8l6.1,2.8c4.8,2.2,4.4,8.4,4.4,8.4
				S185.8,65.2,185.2,66.8z"/>
			<path class="st13" d="M185.2,66.5h-57.6v-0.1l0.5-8.3c2.8-3,5.7-5.8,8.8-8.4l36.2-1.4l1.7-1.8l6.1,2.8c4.8,2.2,4.4,8.4,4.4,8.4
				S185.8,64.9,185.2,66.5z"/>
			<path class="st4" d="M147,43.2c0,0,9.1,11.6,21.2-0.2s1.3,26.4,1.3,26.4l-26.1,3.1L147,43.2z"/>
			<path class="st13" d="M147,43.8c0,0,9.1,11.6,21.2-0.2s1.3,26.4,1.3,26.4L143.4,73L147,43.8z"/>
			<path class="st4" d="M172,45.8l1,14.7l1,4.9l0.8,3.7c0,0,2,28.7,1.4,30.1s0.3,2.6,0.4,3.3s-0.1,2.7,0,3.5s0,1.2-2.2,0.9
				s-5.3-0.8-5.3-0.8s-7.8,0.6-10.4-0.4s-7.8-1-7.8-1s-7.6,0.2-10.1-0.1s-3.8,3.1-5.4,2.1s1.9-10.2,3.1-12.9s-1.5-9.5-1.5-9.5
				l3.4-19.1l0.8-4.3V47.4l0.2-0.1c0.7-0.3,1.3-0.7,1.8-1.3l0.9,13.7l27,1V45.3"/>
			<path class="st13" d="M172,45.2l1,14.7l1,4.9l0.8,3.7c0,0,2,28.7,1.4,30.1s0.3,2.6,0.4,3.3s-0.1,2.7,0,3.6s0,1.2-2.2,0.9
				s-5.3-0.8-5.3-0.8s-7.8,0.6-10.4-0.4s-7.8-1-7.8-1s-7.6,0.2-10.1-0.1s-3.8,3.1-5.4,2.1s1.9-10.2,3.1-12.9s-1.5-9.5-1.5-9.5
				l3.4-19.1l0.8-4.3V46.8l0.2-0.1c0.7-0.3,1.3-0.7,1.8-1.3l0.9,13.7l27,1V44.8"/>
			<path class="st4" d="M175.1,14.6c-0.1-0.6-0.4-1.2-0.9-1.6c-0.4-0.3-1-0.5-1.5-0.6c-1.3-0.3-2.7-0.6-4-0.8
				c-0.2-0.6-0.5-1.2-0.9-1.8c-2.8-4-7-7.7-11.9-8.6c-2.6-0.4-5.5,0-7.2,2c-0.9,1.1-1.3,2.6-2.2,3.7c-1.8,2.1-4.9,2.4-7.1,4
				c-1.1,0.9-2.1,2.1-2.9,3.3c-1,1.3-1.7,2.7-2.1,4.3c-0.6,3.1,1.5,6.1,1.9,9.3c0.9,7.1-6.7,13.3-5.3,20.3c0.8,4.1,4.6,6.9,8.5,8.4
				c1.4,0.5,2.9,1,3.6,2.3c0.3,0.6,0.3,1.2,0.6,1.8c0.9,1.9,3.9,2,5.5,0.6s2.1-3.7,2.3-5.8c0.8-9.3-2.9-18.5-2.5-27.8
				c0.1-2.8,0.9-6,3.4-7.3c3.4-1.7,7.5,1.1,11.2,0.6c1.8,4.3,2.1,9.1,1.1,13.6c-0.6,2.5-1.6,4.9-1.7,7.4c-0.1,3.9,2,7.4,3.8,10.9
				c0.4,0.6,0.7,1.4,0.8,2.1c0,0.8-0.1,1.5-0.4,2.2c-1,2.8-2.8,5.3-3,8.3c-0.1,0.3,0,0.7,0.2,1c0.2,0.2,0.5,0.3,0.7,0.3
				c3.1,0.5,5.8-2.2,7.3-5c1.7-3,2.7-6.4,2.9-9.9c0.3-5.8-1.8-11.6-1.6-17.4C173.8,27.7,176.8,21,175.1,14.6z"/>
			<path class="st10" d="M175.3,14.3c-0.1-0.6-0.4-1.2-0.9-1.6c-0.5-0.3-1-0.5-1.5-0.6c-1.3-0.3-2.7-0.6-4-0.8
				c-0.2-0.6-0.5-1.2-0.9-1.8c-2.8-4-7-7.7-11.9-8.6c-2.6-0.4-5.5,0-7.2,2c-0.9,1.1-1.3,2.6-2.2,3.7c-1.8,2.1-4.9,2.4-7.1,4
				c-1.1,0.9-2.1,2.1-2.9,3.3c-1,1.2-1.7,2.7-2.1,4.2c-0.6,3.1,1.5,6.1,1.9,9.3c0.9,7.1-6.7,13.3-5.3,20.3c0.8,4.1,4.6,6.9,8.5,8.4
				c1.4,0.5,2.9,1,3.6,2.3c0.3,0.6,0.3,1.2,0.6,1.8c0.9,1.9,3.9,2,5.5,0.6s2.1-3.7,2.3-5.8c0.8-9.3-2.9-18.5-2.5-27.8
				c0.1-2.8,0.9-6,3.4-7.3c3.4-1.7,7.5,1.1,11.2,0.6c1.8,4.3,2.1,9,1.1,13.6c-0.6,2.5-1.6,4.9-1.7,7.4c-0.1,3.9,2,7.5,3.8,10.9
				c0.4,0.6,0.6,1.4,0.8,2.1c0,0.8-0.1,1.5-0.4,2.2c-1,2.8-2.8,5.3-3,8.3c-0.1,0.3,0,0.7,0.2,1c0.2,0.2,0.5,0.3,0.7,0.3
				c3.1,0.5,5.8-2.2,7.3-5c1.7-3,2.7-6.4,2.9-9.9c0.3-5.8-1.8-11.6-1.7-17.5C174.1,27.5,177.1,20.8,175.3,14.3z"/>
			<polygon class="st14" points="169,141.4 180.4,141.8 178.8,133.4 170,134.2 			"/>
			<path class="st11" d="M204.3,121.4c-0.8,1-3.7,2.7-4,3.3s-3.8,2.3-5.6,2.6s-7.6,1.5-8.6,2.2c-0.8,0.5-6.8,2-10.8,2.9
				c-1.1,0.3-2.2,0.5-3.3,0.6c-1.7,0.1-20.6-6.3-20.6-6.3l3.6-3.7l0.2-0.1c1-0.3,5.8-2,8.4-2.7c3-0.9,6.4-4.4,6.4-4.4
				s5.1-1.7,5.7-1.9s-1.7-6.7-1.7-6.7s11-1.5,15.3-2.8s14.3-0.8,16.1,4.3S205.1,120.5,204.3,121.4z"/>
			<path class="st13" d="M154.1,137.6c0,0-2.2,2.3-4.4,2.1s-9.9,0.6-9.9,0.6c-1.4,0.6-2.7,1.3-3.9,2.2c-1.8,1.4-2.8,0.3-2.9,0.1
				v-0.1c-1,3-3.2,0.7-3.2,0.7s1-9.2,0.7-10.3s1.9-3.1,1.9-3.1l2.6-0.7l6.6-1.7l9.4,3.3L154.1,137.6z"/>
			<path class="st4" d="M135,129.1l-2,13.4v-0.1c-1,3-3.2,0.7-3.2,0.7s1-9.2,0.7-10.3s1.9-3.1,1.9-3.1L135,129.1z"/>
			<path class="st4" d="M148.5,90.9c0,0,5.1,1.7,9.5,0"/>
			<path class="st4" d="M165.8,94.2c0,0,2.1,1,3.7,0"/>
			<path class="st4" d="M165.8,96.6c0,0,3.5,0.5,4.2-0.5"/>
			<path class="st4" d="M164.7,102c0,0,6.6-0.9,8.3-2"/>
			<path class="st4" d="M144.4,100c0,0,3.7,2.1,6.5,2"/>
			<path class="st4" d="M175.2,132.3c-1.1,0.3-2.2,0.5-3.3,0.6c-1.7,0.1-20.6-6.3-20.6-6.3l3.6-3.7l0.2-0.1c0.6,0.4,1.1,0.8,1.4,1
				c1.6,1.3,3.1-0.4,3.7-0.4s5.6,4.1,5.6,4.1s4.6,1.1,5.4,2s3.4,0.8,3.9,1.4C175.3,131.4,175.3,131.9,175.2,132.3z"/>
			<path class="st11" d="M139.8,107.4c0,0-4.6,0.3-7.3-0.9s-11.6-3.7-14.2-1.9s-8.8,3.4-5.9,10.7s4.2,7.5,4.2,7.5
				c0.9,0.7,1.7,1.5,2.3,2.4c0.9,1.3,8.9,4.4,10.9,4.4s5.6,0,10.5,3.4c2.8,2,6.1,3.3,9.5,3.8c0,0,6.3,2.6,8.3,3.2s10.9,3.1,13.1,2.3
				s3.4-5.6,3.4-5.6s1-4.3,0.5-5s-3.2-0.5-3.9-1.4s-5.4-2-5.4-2s-5-4.1-5.5-4.1s-2.1,1.6-3.7,0.4c-3.2-2.3-6.5-4.4-9.9-6.3
				C143.1,116.4,139.8,107.4,139.8,107.4z"/>
			<path class="st4" d="M130.5,110.2c1.7-0.3,3.4,0.1,4.7,1.3c2.3,1.9,10,5.8,10,5.8"/>
			<path class="st4" d="M187.9,110.1c0,0-10.2,1.6-12.1,3.7"/>
			<path class="st13" d="M199.7,141.8h-0.4c-2.7-0.1-5.4-0.1-8.2,0c-1.2,0.3-17.7,0-17.7,0l3.2-0.7c0,0-1.2-4.2-0.4-4.5
				c0,0-4.3-2.8-1.1-4.8c2-1.1,4.4-1.5,6.7-1.1l8.2-2.7l1.6-0.5c0,0,9.2,0.5,11.7,6.8S199.7,141.8,199.7,141.8z"/>
			<path class="st4" d="M199.7,141.8h-0.4c2.7-2.2,8.7-8.9-9.3-13.8l1.6-0.5c0,0,9.2,0.5,11.7,6.8
				C205.7,140.6,199.7,141.8,199.7,141.8z"/>
			<circle class="st11" cx="182.8" cy="133.9" r="0.5"/>
			<circle class="st11" cx="179.9" cy="134.7" r="0.5"/>
			<g class="st15">
				<path d="M165.7,28.5c0.1-3.2-0.5-6.3-1.7-9.2c-3.7,0.5-7.8-2.3-11.2-0.6c-2.5,1.3-3.3,4.5-3.4,7.3c0,0.8,0,1.5,0,2.2
					c0-0.3,0-0.5,0-0.8c0.1-2.8,0.9-6,3.4-7.3c3.4-1.7,7.5,1.1,11.2,0.6C165,23.2,165.6,25.9,165.7,28.5z"/>
				<path d="M136.7,28c0.1-0.6,0.1-1.3,0-1.9c-0.3-2.5-1.7-4.9-1.9-7.4c-0.3,3,1.6,5.8,1.9,8.8C136.8,27.7,136.8,27.9,136.7,28z"/>
				<path d="M151.9,53.8c-0.2,2.1-0.7,4.4-2.3,5.8s-4.6,1.3-5.5-0.6c-0.3-0.6-0.3-1.3-0.6-1.8c-0.6-1.3-2.2-1.8-3.6-2.3
					c-3.9-1.5-7.6-4.3-8.5-8.4c-0.1-0.4-0.1-0.7-0.1-1.1c-0.1,0.9,0,1.7,0.1,2.6c0.8,4.1,4.6,6.9,8.5,8.4c1.4,0.5,2.9,1,3.6,2.3
					c0.3,0.6,0.3,1.2,0.6,1.8c0.9,1.9,3.9,2,5.5,0.6s2.1-3.7,2.3-5.8c0.1-1.1,0.1-2.2,0.1-3.4C152,52.5,151.9,53.1,151.9,53.8z"/>
				<path d="M174,32.7V34c0.2-5.3,2.1-10.7,1.9-15.9C175.8,22.9,174.1,27.8,174,32.7z"/>
				<path d="M167.9,54.3c0.1-0.3,0.1-0.7,0.1-1c-0.1-0.7-0.4-1.5-0.8-2.1c-1.7-3.2-3.6-6.4-3.8-9.9c0,0.2,0,0.3,0,0.5
					c-0.1,3.9,2,7.4,3.8,10.9C167.5,53.2,167.7,53.8,167.9,54.3z"/>
				<path d="M175.7,50.2c-0.2,3.5-1.2,6.9-2.9,9.9c-1.5,2.8-4.2,5.5-7.3,5c-0.3,0-0.5-0.1-0.7-0.3c-0.1-0.1-0.1-0.1-0.1-0.2
					c0,0.2-0.1,0.4-0.1,0.7c-0.1,0.3,0,0.7,0.2,1c0.2,0.2,0.5,0.3,0.7,0.3c3.1,0.5,5.8-2.2,7.3-5c1.7-3,2.7-6.4,2.9-9.9
					c0-0.7,0-1.3,0-2C175.7,49.8,175.7,50,175.7,50.2z"/>
			</g>
			<path class="st16" d="M176.2,136.6c0,0,7.3,3,12.1-3.7"/>
			<path class="st16" d="M177.6,141.9c4.2-2.3,9.3-2.4,13.5-0.1"/>
			<path class="st16" d="M137.9,141.1c0,0,2.5-5.6,9.1-1.3"/>
			<path class="st4" d="M129.8,57.9l5.1-4.6c0,0,19.7-1.3,20.5,5.4c0,0,7-7.9,21.7-6.2l6.2,5l-17.2,7.5l-16.7,5.8l-12.3-5.5
				L129.8,57.9z"/>
			<path class="st3" d="M129.8,58.2l5.1-4.6c0,0,19.7-1.3,20.5,5.4c0,0,7-7.9,21.7-6.2l6.2,5l-17.2,7.5l-16.7,5.8l-12.3-5.5
				L129.8,58.2z"/>
			<polygon class="st4" points="127.6,58.8 129.8,85.7 153.6,86.9 152.6,60.1 152.6,59.7 			"/>
			<polygon class="st1" points="127.6,58.2 129.8,85.1 153.6,86.3 152.6,59.5 152.6,59.1 			"/>
			<polygon class="st4" points="184.4,58.2 159.8,61.9 159.8,88.9 183.8,85.4 			"/>
			<polygon class="st1" points="184.4,57.7 159.8,61.3 159.8,88.3 183.8,84.9 			"/>
			<polygon class="st5" points="178.6,64.2 165.3,65.7 165.6,70.2 178.6,68.8 			"/>
			<path class="st9" d="M131.1,99.5l1.4,3.6c1.2,1,2.8,1.3,4.2,0.9c2.2-0.9,4.1-1.3,5.1-2.1s2.3-5,2.3-5s1.4-4.6,2.7-5.7
				s4.9-17,0-15.4s-8.6,15.9-8.6,15.9c-0.5,0.6-1.3,1-2.1,1.2c-1.3,0.1-3.7-0.2-4.2,0.9S129.6,97.4,131.1,99.5z"/>
			<path class="st4" d="M159.8,61.9c-2.6,0.6-5.2-0.1-7.2-1.8l1,26.8c1.6,1.6,3.9,2.3,6.2,2L159.8,61.9z"/>
			<path class="st1" d="M159.8,61.3c-2.6,0.6-5.2-0.1-7.2-1.8l1,26.8c1.6,1.6,3.9,2.3,6.2,2L159.8,61.3z"/>
			<path class="st4" d="M159.8,61.3c-2.6,0.6-5.2-0.1-7.2-1.8l1,26.8c1.6,1.6,3.9,2.3,6.2,2L159.8,61.3z"/>
			<path class="st4" d="M160.4,58.3c0,0,10-3.1,12.6-2.6"/>
			<path class="st4" d="M149.2,57c0,0-9.7-2.3-11.3-1.7"/>
			<path class="st4" d="M166.7,58.7c0,0,6.7-2.5,9.1-1.3"/>
			<path class="st4" d="M163.3,120.2c1-0.8,2.1-1.4,3.3-2c1.7-0.9,3.3-1.9,4.9-3"/>
			<path class="st4" d="M137.9,90.9c0,0-4.2,3.4-5.4,3.7s-2,3-2,3"/>
			<path class="st9" d="M181.9,99l-1.3,3.7c-1.2,1-2.8,1.3-4.2,0.9c-2.2-0.9-4.1-1.3-5.1-2.1s-2.3-5.1-2.3-5.1s-1.3-4.6-2.7-5.7
				s-4.9-17,0-15.4s8.6,15.9,8.6,15.9c0.5,0.6,1.3,1,2.1,1.2c1.2,0.1,3.7-0.2,4.2,0.9S183.3,96.9,181.9,99z"/>
			<path class="st4" d="M179.6,92.3c0,0,2.7,1.8,2.7,3.9"/>
			<circle class="st9" cx="156.3" cy="28.4" r="12.8"/>
			<path class="st10" d="M148.3,24.9c1.6-0.3,2.9-1.1,4.4-1.7c3.3-1.2,7-0.4,10.4,0.7c1.3,0.5,2.6,0.8,3.9,0.9
				c1.4,0.1,2.7-0.6,3.5-1.7c0.6-1.1,0.6-2.5,0-3.6c-0.6-1.1-1.4-2.1-2.4-2.9c-3-2.8-6.7-5.5-10.8-5.2c-1.6,0.2-3.2,0.6-4.7,1.4
				c-1.9,0.8-3.8,1.8-5.6,2.8c-1.4,0.8-3.9,1.9-4.7,3.3C140.5,22.2,145.4,25.4,148.3,24.9z"/>
			<path class="st4" d="M170.5,21.9c-0.8,1.1-2.1,1.8-3.5,1.7c-1.4-0.1-2.7-0.4-4-0.8c-3.4-1.1-7-1.9-10.4-0.7
				c-1.5,0.5-2.9,1.4-4.4,1.7c-2.3,0.4-5.9-1.6-6.3-4.1c-0.4,2.9,3.8,5.4,6.3,5c1.6-0.3,2.9-1.1,4.4-1.7c3.3-1.2,7-0.4,10.4,0.7
				c1.3,0.5,2.6,0.8,4,0.8c1.4,0.1,2.7-0.6,3.5-1.7c0.4-0.6,0.5-1.4,0.4-2.1C170.8,21.1,170.7,21.5,170.5,21.9z"/>
			<path class="st1" d="M274.5,177.4c0,0,1.7,2.2-0.8,5.6s-4.5,6.2-3.7,8.3c0,0,3.8-6.2,6.8-6.3S277.9,181.2,274.5,177.4z"/>
			<path class="st4" d="M274.5,177.4c0.2,0.2,0.3,0.5,0.4,0.7c3,3.5,4.6,6.8,1.7,6.9c-2.7,0.1-5.9,4.9-6.6,6.1c0,0.1,0,0.2,0.1,0.3
				c0,0,3.8-6.2,6.8-6.3S277.9,181.2,274.5,177.4z"/>
			<path class="st17" d="M277.7,180.3c0,0.8-0.1,1.4-0.2,1.4s-0.2-0.6-0.2-1.4s0.1-0.4,0.2-0.4S277.7,179.5,277.7,180.3z"/>
			<path class="st17" d="M278.8,181.2c-0.7,0.4-1.3,0.6-1.3,0.5s0.5-0.5,1.1-0.9s0.4-0.1,0.5,0S279.5,180.9,278.8,181.2z"/>
			<path class="st1" d="M265.5,177.4c0,0-1.7,2.2,0.8,5.6s4.5,6.2,3.7,8.3c0,0-3.8-6.2-6.8-6.3S262.2,181.2,265.5,177.4z"/>
			<path class="st4" d="M265.5,177.4c-0.2,0.2-0.3,0.5-0.4,0.7c-3,3.5-4.6,6.8-1.7,6.9c2.7,0.1,5.9,4.9,6.6,6.1
				c0,0.1-0.1,0.2-0.1,0.3c0,0-3.8-6.2-6.8-6.3S262.2,181.2,265.5,177.4z"/>
			<path class="st17" d="M262.4,180.3c0,0.8,0.1,1.4,0.2,1.4s0.2-0.6,0.2-1.4s-0.1-0.4-0.2-0.4S262.4,179.5,262.4,180.3z"/>
			<path class="st17" d="M261.3,181.2c0.7,0.4,1.3,0.6,1.3,0.5s-0.5-0.5-1.1-0.9s-0.4-0.1-0.5,0S260.6,180.9,261.3,181.2z"/>
			<ellipse class="st0" cx="270" cy="205.6" rx="17.8" ry="2.7"/>
			<path class="st18" d="M279.2,188.3l-0.1,0.7l-0.1,1l0,0.4l-0.1,1l0,0.4l-0.1,1l-1.4,11.2c-0.1,1-1.8,1.8-3.7,1.8h-7.1
				c-2,0-3.6-0.8-3.7-1.8l-1.4-11.2l-0.1-1l0-0.4l-0.1-1l0-0.4l-0.1-1l-0.1-0.7c-0.1-0.6,0.8-1,1.9-1h14.5
				C278.4,187.3,279.3,187.8,279.2,188.3z"/>
			<polygon class="st19" points="279.1,189 279,190 261.1,190 261,189 			"/>
			<polygon class="st19" points="278.9,190.4 278.8,191.4 261.2,191.4 261.1,190.4 			"/>
			<polygon class="st19" points="278.8,191.8 278.6,192.8 261.4,192.8 261.3,191.8 			"/>
		</g>
	</g>
</g>
<g id="Chico">
	<path class="st20" d="M189.9,189.9h9.5l23.5-9.2c0,0,16.7-6.8,15.3,6.1c-1.4,13-3.8,30.4-3.8,30.4s-7.5-3.4-11.6-2.4
		s-1.4-20.8-1.4-20.8s-33.4,16-36.5,14c-3.1-2-3.8-16.4-3.8-16.4L189.9,189.9z"/>
	<path class="st4" d="M189.9,189.9h9.5l23.5-9.2c0,0,16.7-6.8,15.3,6.1c-1.4,13-3.8,30.4-3.8,30.4s-7.5-3.4-11.6-2.4
		s-1.4-20.8-1.4-20.8s-33.4,16-36.5,14c-3.1-2-3.8-16.4-3.8-16.4L189.9,189.9z"/>
	<path class="st21" d="M204.9,160l11.6,16.6l26.9,22.5c0,0,24.9,5.8,21.5,9.9c-3.4,4.1-24.2-4.1-24.2-4.1s-31-22.5-32.1-24.2
		c-1-1.7-12.3-17.7-12.3-17.7L204.9,160z"/>
	<path class="st22" d="M198.1,146.6l7.5,14.7c0,0-1.7,7.2-4.4,7.8c-2.7,0.7-14.3-8.9-14.3-8.9L198.1,146.6z"/>
	<path class="st4" d="M198.1,146.6l7.5,14.7c0,0-1.7,7.2-4.4,7.8c-2.7,0.7-14.3-8.9-14.3-8.9L198.1,146.6z"/>
	<path class="st20" d="M289.6,182.3l2.2,9.1c0,0.1,0,0.2,0,0.3l-10.1,31.4c-0.1,0.3-0.4,0.5-0.7,0.4c-0.2-0.1-0.4-0.3-0.4-0.5
		l-1.4-12.2c0-0.1,0-0.2,0-0.2l9.2-28.3c0.1-0.3,0.4-0.5,0.7-0.4C289.4,182,289.6,182.1,289.6,182.3z"/>
	<polygon class="st23" points="288.8,183.1 290.8,190.9 282,219.6 279.9,210.7 	"/>
	<path class="st20" d="M244.1,225.7c0.3,1,35.5-0.3,35.8-0.7c0.3-0.4,0.5-0.9,0.8-1.4c0.3-0.7,0.6-1.4,0.6-1.4l-1.4-11l-34.8-1.2
		c0,0-0.9,9.4-1,13.6C244.1,224.7,244.1,225.5,244.1,225.7z"/>
	<polygon class="st4" points="275.5,212.8 276.2,222.3 260.8,222.3 260.8,212.8 	"/>
	<polygon class="st4" points="255.7,215.8 255.8,215.8 255.4,219.9 246.9,219.9 246.9,215.8 	"/>
	<path class="st4" d="M244.1,225.7c0.3,1,35.5-0.3,35.8-0.7c0.3-0.4,0.5-0.9,0.8-1.4h-36.6C244.1,224.7,244.1,225.5,244.1,225.7z"/>
	<circle class="st21" cx="203.2" cy="126.5" r="15.3"/>
	<path class="st21" d="M202.2,140.1c0,0-5.1,8.9-6.1,13.6c-1,4.8-15.3-9.5-15.3-9.5l-1.9-4.9c0,0,13.5-6.3,12.4-11.4
		C190.2,122.7,202.2,140.1,202.2,140.1z"/>
	<path class="st21" d="M204.9,166.7l14,18.4l33.4,24.9c0,0,24.2,5.1,18.8,8.9c-5.5,3.8-21.1-3.4-21.1-3.4s-33.8-18.1-40.9-25.6
		s-20.5-20.1-20.5-20.1L204.9,166.7z"/>
	<path class="st20" d="M186.1,195.4l4.1,6.5l24.4-7.7c5.4-1.7,11.2-1.1,16,1.9c4.3,2.7,7,6.9,0.9,13.3c-12.3,12.6-20.5,5.8-20.5,5.8
		s-41.3,19.4-48.1,9.9s-7.2-14.3-7.2-14.3S182.1,194.3,186.1,195.4z"/>
	<path class="st22" d="M237.3,217.9c0,0,10.9,7.2-2,10.6s-22.5-1.4-22.5-1.4s-11.3,0-11.3-5.8s3.8-6.5,3.8-6.5l11.6,1.7
		C216.8,216.5,230.8,212.8,237.3,217.9z"/>
	<path class="st20" d="M215.8,122.6c1,0.5,2.1,1,3.2,1.2c1.1,0.1,2.4-0.3,3-1.3c0.3-0.5,0.3-1.2,0.3-1.8c0-1.9-0.1-3.9-1.3-5.3
		c-0.8-0.9-1.9-1.5-2.6-2.4c-0.6-0.6-0.9-1.4-1.3-2.2c-1.5-2.9-3.8-5.6-6.9-6.4c-1.3-0.3-2.7-0.3-4-0.3l-7.9,0.1
		c-1.3,0-2.6,0-3.8,0.4c-2.5,0.8-4.4,2.9-6.1,4.9c-1.3,1.5-2.5,3.1-3.5,4.8c-1.4,2.5-2,5.4-2,8.3c0,0.7,0.1,1.5,0.3,2.2
		c0.2,0.7,0.5,1.3,0.9,1.9c1.5,2.9,2.4,6.5,0.7,9.3c2.9-1.2,5.8-2.7,7.7-5.2c0.9-1.1,1.5-2.4,2.7-3.2c1.1-0.8,3-0.9,3.7,0.3
		c0.3,0.5,0.4,1,0.4,1.6c0.1,0.9,0.1,1.8,0.4,2.6s1.3,1.5,2.1,1.2c1.5-0.4,1.3-2.7,2.5-3.7c0.9-0.8,2.2-0.6,3.3-1
		c1.3-0.4,2.3-1.5,2.8-2.8c0.4-0.9,0.4-3.4,1.2-3.9C212.6,121.2,214.9,122.2,215.8,122.6z"/>
	<path class="st22" d="M177.6,137.6c0.7-0.2,1.4-0.2,2.1,0c2.2,0.6,7.1,2.1,8.1,4.5c1.4,3.1,6.1,7.8,6.1,7.8s6.5,6.5,5.1,10.9
		s-6.5,9.5-6.5,9.5s1.4,21.1-5.5,26.6c-6.8,5.5-9.5,1.7-9.5,6.8c0,5.1-21.1,21.1-25.2,11.3c0,0,2-18.4,1.4-24.9
		C153.1,183.9,154.1,144,177.6,137.6z"/>
	<path class="st22" d="M188.5,146.2c0,0,20.8,15.3,17.1,21.8c0,0-12.6,6.1-15.3,5.8c-2.7-0.3-13.3-12.3-16-13.3
		C171.5,159.5,170.1,141.1,188.5,146.2z"/>
</g>
</svg>
