<?xml version="1.0" encoding="utf-8"?>
<!-- Generator: Adobe Illustrator 23.1.0, SVG Export Plug-In . SVG Version: 6.00 Build 0)  -->
<svg version="1.1" id="e3d91524-6b62-443e-987f-f254d350d652"
	 xmlns="http://www.w3.org/2000/svg" xmlns:xlink="http://www.w3.org/1999/xlink" x="0px" y="0px" viewBox="0 0 1151.1 422.1"
	 style="enable-background:new 0 0 1151.1 422.1;" xml:space="preserve">
<style type="text/css">
	.st0{fill:#42B400;}
	.st1{fill:#008EC6;}
	.st2{fill:none;}
	.st3{fill:url(#aed89cae-5afd-415f-9673-27f4b3d7345d_1_);}
	.st4{fill:url(#bc3b9929-0f9f-42a2-b392-0199449e0ba3_1_);}
	.st5{fill:url(#bc7d6360-f835-4f60-a9ca-1248b63f56c4_1_);}
	.st6{fill:#FFFFFF;}
	.st7{font-family:'NeoGramCondensedW00-XBold';}
	.st8{font-size:172px;}
	.st9{letter-spacing:-6;}
	.st10{fill:#F2EDDA;}
	.st11{fill:#AAB1BA;}
	.st12{fill:#51565F;}
	.st13{font-family:'ArialMT';}
	.st14{font-size:52.19px;}
</style>
<title>logo-SIBUDELAS</title>
<path class="st0" d="M259.4,268.5c-61.6,8.4-102.1,13.9-148.3,30.4c-29.4,10.4-71,28.8-110.3,60.9c49.9-10.9,125.5-25.7,219.4-37.4
	c72.3-9,147.9-12.6,296.2-19.6c95.6,0.1,214.7,10.2,527-44.2c12.2-2.1,76.7-27.6,81.1-38.5c4.3-10.7-15-24.8-33.9-31.6
	c-37.7-13.8-80.4-1.6-134.1,8.1c-38.5,7-35.4,7-165.7,23.2c-39.7,4.9-159.6,19.7-229,25.2c-59.7,4.7-72.7,4.1-156.1,10.3
	C335.2,260.4,300,263,259.4,268.5z"/>
<ellipse transform="matrix(0.7071 -0.7071 0.7071 0.7071 161.9189 796.3784)" class="st1" cx="1042.3" cy="202.7" rx="99.8" ry="99.8"/>
<g id="b7b23746-5272-4bdb-b3d1-c9f9152f6096">
	<path id="a722b57f-d43e-47ed-a605-64a43ee59ae7" class="st2" d="M477,129.8v152.9h158.3V129.8H477z"/>
	
		<linearGradient id="aed89cae-5afd-415f-9673-27f4b3d7345d_1_" gradientUnits="userSpaceOnUse" x1="-239.7056" y1="-288.2132" x2="-239.7056" y2="-287.9232" gradientTransform="matrix(0 450.45 -484.82 0 -139104.3906 108182.0859)">
		<stop  offset="0" style="stop-color:#009EE0"/>
		<stop  offset="1" style="stop-color:#00628F"/>
	</linearGradient>
	<path id="aed89cae-5afd-415f-9673-27f4b3d7345d" class="st3" d="M540,196.7c0.6-10,7.6-18.7,19.1-18.7c12.3,0,18.5,9.2,19.1,18.7
		H540z M583.6,224.9c-3.5,8.2-11.8,13.3-20.7,12.7c-14-0.7-20.4-5.5-23.1-20.5h86.3c4.3-25.7-7.8-71.9-65.7-71.9
		c-41.5,0-70.5,26.5-70.5,62.9c0,40.3,32.1,60.1,69.8,60.1c10.6,0,51.3-3.9,65.3-43.3L583.6,224.9z"/>
	<g id="a51f3569-e043-4ef0-b0ac-d566fd9ccd7e">
		
			<linearGradient id="bc3b9929-0f9f-42a2-b392-0199449e0ba3_1_" gradientUnits="userSpaceOnUse" x1="-238.3832" y1="-286.7978" x2="-238.3832" y2="-286.5178" gradientTransform="matrix(376.29 0 0 472.22 90237.6094 135569.9375)">
			<stop  offset="0" style="stop-color:#FFEC00"/>
			<stop  offset="1" style="stop-color:#D4B800"/>
		</linearGradient>
		<path id="bc3b9929-0f9f-42a2-b392-0199449e0ba3" class="st4" d="M487.2,267.1v0.5l-0.1-2.2v-2.1l0.2-2.3l0.2-1.7l0.4-2.3l0.6-2.6
			l0.8-2.7l1.3-3.7l1.3-3.3l1.4-3.1l1.9-3.9l2.6-4.8l2-3.6l2.4-3.9l2.4-3.8l2.4-3.5l3.6-5l2.9-3.9l2.8-3.6l5.4-6.8l3.5-4.2l5-5.8
			l3.4-3.9l4.7-5.1l3.7-3.9l3.7-3.8l4.5-4.4l3.5-3.3l2.6-2.4l2.7-2.4l3.8-3.3l1.5-1.2l3.2-2.6l3.2-2.5l2.2-1.6l3.4-2.5l2.7-1.8
			c18.3-9.4,9.8-3.9-0.8-2.6l-3.5,1.8l-4.2,2.2l-4.2,2.3l-3.3,1.9l-3.7,2.2l-3.4,2.2l-1.7,1.1l-2,1.3l-4.2,2.8l-4.2,3l-2.8,2
			l-3.7,2.9l-2.3,1.8l-3.6,3l-2.9,2.5l-3.2,2.8l-3.3,3.1l-1.6,1.5l-2.5,2.4l-3,3l-2.6,2.7l-2.3,2.5l-2.3,2.6l-1.4,1.6l-1.7,2
			l-1.8,2.3l-2.1,2.7l-2.4,3.4l-2.1,3.1l-2.1,3.4l-1.7,3l-1.2,2.3l-1.2,2.4l-1.5,3.3l-0.8,2l-1.3,3.7l-0.8,2.6l-1,3.8l-0.7,4
			l-0.3,2.6l-0.3,3.6v3.4l0.1,2l0.3,3.4l0.4,2.6l0.3,1.6l0.6,2.4l0.6,1.9l1.1,2.1L487.2,267.1z"/>
		
			<linearGradient id="bc7d6360-f835-4f60-a9ca-1248b63f56c4_1_" gradientUnits="userSpaceOnUse" x1="-238.9019" y1="-286.8408" x2="-238.9019" y2="-286.5709" gradientTransform="matrix(511.54 0 0 532.23 122764.6641 152798.9063)">
			<stop  offset="0" style="stop-color:#FFEC00"/>
			<stop  offset="1" style="stop-color:#D4B800"/>
		</linearGradient>
		<path id="bc7d6360-f835-4f60-a9ca-1248b63f56c4" class="st5" d="M544.7,267.2l-10-2.1l-3.1,1.5l-3.3,1.4l-3.4,1.2l-2.2,0.7
			l-2.4,0.6l-2.1,0.4l-1.8,0.3l-2.2,0.2l-2,0.1l-1.9-0.1l-1.7-0.2l-1.5-0.3l-1.3-0.4l-1.1-0.4l-1.3-0.6l-1.3-0.9l-1.1-0.9l-0.7-0.7
			l-0.5-0.7l-0.6-0.9l-0.7-1.4l-0.6-1.5l-0.5-2.1l-0.2-1.6l-0.2-2v-1.7l0.1-2.1l0.3-2.5l0.5-2.6l0.7-2.8l0.8-2.6l1.1-3.2l0.9-2.2
			l0.9-2.1l1-2.2l1.1-2.2l1.5-2.9l1.4-2.6l1.8-3.1l1.5-2.5l1.2-2l1.9-2.9l2-2.9l2-2.8l2-2.8l1-1.4l2.1-2.7l2.3-2.9l2-2.5l3.3-3.9
			l3.4-4l1.5-1.7l2.1-2.3l2-2.2l2.1-2.2l1.7-1.7l3.4-3.4l2.1-2l2.8-2.6l2.5-2.3l1.6-1.4l3.3-2.9l1.7-1.4l2.3-1.9l1.3-1l2.5-1.9
			l2.3-1.7l2.4-1.7l2.2-1.5l2.9-1.8l2.5-1.5l3-1.7l1.8-0.9l2.8-1.4l2.9-1.3l2.6-1.1l1.9-0.7l2.1-0.7l1.4-0.4l1.8-0.5l1.7-0.4
			l2.7-0.5l1.8-0.2l1.4-0.1h1.4l2,0.1l1.2,0.2l1.6,0.4l1.2,0.4l1.2,0.5l0.8,0.4l1,0.6l0.7,0.5l0.6,0.5l0.7,0.7l0.4,0.5l0.7,1
			l0.4,0.7l0.5,1l0.4,1l0.4,1.2l0.3,1l0.3,1.7l0.2,1.8l0.1,1.9v1.5l-0.1,1.9l-0.2,1.7l-0.3,1.9l-0.3,1.6l-0.4,1.7l5.6,0.4l0.5-2.4
			l0.5-2.7l0.3-2.3l0.2-2.1v-2.2l-0.1-2.9l-0.4-2.9l-0.4-1.7l-0.6-1.8l-0.5-1.3l-0.5-1.1l-0.6-1l-0.9-1.3l-0.8-1l-1-1l-1-0.8
			l-0.9-0.7l-1.4-0.9l-0.9-0.5l-1.2-0.6l-0.9-0.4l-0.9-0.3l-0.8-0.3l-1.1-0.3l-1.2-0.4l-0.9-0.2l-1.3-0.2l-1.2-0.1l-1-0.1l-1.6-0.1
			h-1.3l-1.6,0.1l-2.3,0.2l-1.1,0.1l-1.3,0.2l-1.7,0.3l-1.6,0.3l-2,0.5l-2.1,0.6l-1.8,0.6l-2,0.7l-1.2,0.4l-1.5,0.6l-0.6,0.2l-2.3,1
			l-2.1,1l-1.9,0.9l-1.9,0.9l-1.5,0.8l-2,1.1l-1.5,0.9l-2.2,1.3l-1.9,1.2l-1.7,1.1l-1.6,1.1l-1.7,1l-2,1.4l-1.1,0.8l-3,2.3l-1.8,1.4
			l-1.8,1.4l-1.6,1.3l-1.2,1l-1.4,1.2l-2,1.7l-2.4,2.1l-2.5,2.3l-2.7,2.6l-3.8,3.8l-2,2l-3,3.2l-3.4,3.7l-1.8,2l-4,4.6l-2.2,2.6
			l-2.1,2.5l-2,2.4l-1.3,1.7l-2.5,3.1l-1.6,2.1l-1.8,2.4l-1.8,2.5l-0.9,1.3l-1.4,2L502,214l-1.5,2.2l-1.2,1.8l-1.6,2.6l-1.2,1.8
			l-1.5,2.7l-0.9,1.6l-1,1.9l-1.1,2.1l-1,2l-1.1,2.5l-1,2.2l-1,2.7l-0.7,1.8l-0.9,2.8l-0.8,3.2l-0.4,2l-0.2,1.4l-0.2,1.3l-0.2,2
			l-0.1,1.4v1.3l0.1,1.4l0.1,1.3l0.2,1.4l0.3,1.6l0.3,1.2l0.4,1.1l0.5,1.3l0.7,1.4l0.8,1.3l0.7,1l0.8,1l0.8,0.8l0.8,0.8l0.9,0.8
			l0.9,0.6l0.7,0.5l0.7,0.4l0.5,0.3l0.9,0.5l1,0.5l1.3,0.5l1.2,0.4l1.5,0.5l1.3,0.3l1.8,0.4l1.3,0.2l1.8,0.2l1.5,0.1h2l1.6-0.1
			l1.8-0.1l2.3-0.3l2.8-0.5l1.3-0.3l0.9-0.2l0.8-0.2l2.4-0.7l2.2-0.7l1.8-0.6l1.8-0.7l1.3-0.5l2.3-1l2.2-1l2.5-1.3l2.7-1.5l1.7-1
			l1-0.6L544.7,267.2z"/>
	</g>
</g>
<text transform="matrix(1 0 0 1 11.61 268.77)" class="st6 st7 st8">SIBUD</text>
<text transform="matrix(1 0 0 1 643.22 268.77)" class="st6 st7 st8">L</text>
<text transform="matrix(1 0 0 1 733.18 268.77)" class="st6 st7 st8 st9">A</text>
<text transform="matrix(1 0 0 1 843.2599 268.77)" class="st6 st7 st8">S</text>
<path class="st2" d="M655.4,0.2h-0.5C654.8-0.5,655.5,0.8,655.4,0.2z"/>
<path class="st10" d="M1040.2,189.6l-16.8-45.6c-7.4-0.6-14.9,0.4-21.8,2.9c-12.1,4.4-23.6,10.4-34.1,17.7l4.2,11.4l32.7,89
	c10.6-7.4,22.1-13.4,34.2-17.8c7-2.5,14.4-3.5,21.8-2.9c0,0,9.5-8.7,20.7-12.8c20.1-7.4,35.3-7.8,35.3-7.8l-32.7-89l-4.2-11.4
	c0,0-5.3-0.6-14.3,2.7l13.4,36.5l-13.4-36.5l-7.6-20.5c-15.4,13.4-34.1,38.5-34.1,38.5L1040.2,189.6z"/>
<path class="st11" d="M1092.6,131.5l32.7,89c1.9,5-0.6,10.5-5.6,12.4l-56,20.6l-3.3-9.1c0,0,9.5-8.7,20.7-12.8
	c20.1-7.4,35.3-7.8,35.3-7.8l-32.7-89L1092.6,131.5L1092.6,131.5z M1060.4,244.4l3.4,9.1l-56,20.6c-5,1.8-10.5-0.8-12.3-5.8
	l-32.7-89l9-3.3l32.7,89c10.6-7.4,22.1-13.3,34.1-17.8C1045.6,244.7,1053,243.8,1060.4,244.4L1060.4,244.4z"/>
<path class="st12" d="M1120.1,234l-111.9,41.2c-5.6,2-11.8-0.9-13.8-6.5c0,0,0-0.1,0-0.1l-32.7-89c-0.2-0.6,0.1-1.3,0.7-1.5
	s1.3,0.1,1.5,0.7l32.7,89c1.6,4.3,6.4,6.6,10.8,5.1l54.8-20.2l-2.7-7.3c-7-0.4-13.9,0.6-20.5,2.9c-12,4.5-23.4,10.4-33.9,17.7
	c-0.3,0.2-0.7,0.2-1,0.1c-0.4-0.1-0.6-0.4-0.8-0.8L966.3,165c-0.2-0.5,0-1.2,0.5-1.5c10.7-7.3,22.2-13.3,34.4-17.8
	c7.2-2.6,14.8-3.6,22.4-2.8c0.4,0,0.8,0.3,1,0.7l32.8,89.2c4.4-5.3,18.7-22.4,33.2-34.2l-33.5-91c-14.5,13.1-27.7,29.9-27.6,30.1
	c-0.5,0.5-1.2,0.6-1.7,0.1c-0.5-0.5-0.6-1.2-0.1-1.8c0.1-0.3,13.8-18.3,29.3-31.5c0.4-0.4,0.7-0.3,1.2-0.2c0.4,0.1,0.7,0.4,0.8,0.7
	l34.4,93.5c0.2,0.5,0.1,1-0.3,1.4c-17.3,13.9-34.6,35.8-34.8,36.1c-0.3,0.3-0.7,0.5-1.1,0.4c-0.4,0-0.8-0.3-1-0.7l-33.3-90.5
	c-7-0.4-13.9,0.6-20.5,2.9c-11.7,4.3-22.8,10.1-33.1,17.1l36.1,98.1c10.3-7,21.4-12.8,33.1-17.1c7-2.6,14.4-3.6,21.8-2.9
	c1.9-1.7,10.6-9.1,20.7-12.8c10.9-4.1,22.4-6.8,34-7.8l-36-97.8c-1.3,0.2-2.7,0.4-4,0.7c-0.8,0-1.4-0.3-1.4-1
	c-0.2-0.5,0-1.1,0.5-1.3c0.2-0.1,0.3-0.1,0.5-0.1c3.1-0.6,5-0.8,5-0.8c0.5,0,1,0.3,1.3,0.8l36.9,100.4c0.1,0.4,0.1,0.8-0.1,1.1
	c-0.1,0.3-0.6,0.5-1,0.6c-0.2,0.1-15.1,0.4-34.8,7.6c-9.2,3.4-17.4,10-19.8,11.9l2.7,7.3l54.7-20.2c4.3-1.7,6.5-6.5,4.9-10.9
	l-32.7-89c-0.2-0.6,0.1-1.3,0.7-1.5s1.3,0.1,1.5,0.7l32.7,89C1128.6,225.9,1125.6,231.9,1120.1,234z M1009,236
	c-0.5,0.2-1.2,0-1.5-0.5c-0.5-0.6-0.2-1.2,0.4-1.7s14.5-10.3,29.1-12c0.6-0.1,1.2,0.4,1.4,1c0.1,0.7-0.4,1.3-1,1.4
	c-14.2,1.6-28.1,11.4-28.2,11.7L1009,236z M1059.4,207.2c-0.4,0.2-1,0.1-1.2-0.4c-0.4-0.5-0.4-1.2-0.1-1.8
	c0.4-0.4,11.1-12.1,17-16.6c0.5-0.4,1.2-0.3,1.6,0.2c0.4,0.5,0.3,1.1-0.1,1.5c-5.7,4.5-16.7,16.2-16.6,16.5
	C1059.9,206.9,1059.7,207.1,1059.4,207.2z M1004,222.4c-0.5,0.2-1.1,0-1.5-0.5c-0.5-0.6-0.2-1.2,0.4-1.7s14.5-10.3,29.1-12
	c0.6,0,1.2,0.4,1.4,1c0.1,0.7-0.4,1.3-1,1.4c-14.2,1.6-28.1,11.4-28.2,11.7L1004,222.4z M1054.3,193.5c-0.4,0.2-1,0.1-1.2-0.4
	c-0.4-0.5-0.4-1.2-0.1-1.8c0.4-0.4,11.1-12.1,17-16.6c0.5-0.4,1.2-0.3,1.6,0.2c0.4,0.5,0.3,1.2-0.2,1.6
	c-5.7,4.4-16.7,16.2-16.6,16.4C1054.8,193.3,1054.6,193.4,1054.3,193.5L1054.3,193.5z M998.9,208.7c-0.5,0.2-1.1,0-1.4-0.5
	c-0.5-0.6-0.2-1.2,0.4-1.7c0.6-0.5,14.5-10.3,29.1-12c0.6-0.1,1.2,0.4,1.4,1c0.1,0.7-0.4,1.2-1,1.4c-14.2,1.6-28.1,11.4-28.2,11.7
	L998.9,208.7z M1049.3,179.8c-0.4,0.2-0.9,0.1-1.1-0.3c0,0,0,0,0,0c-0.4-0.5-0.4-1.2-0.1-1.8c0.4-0.4,11-12.1,17-16.6
	c0.5-0.4,1.2-0.3,1.6,0.2c0.4,0.5,0.3,1.2-0.2,1.6c-5.7,4.4-16.7,16.2-16.6,16.5C1049.8,179.6,1049.6,179.8,1049.3,179.8
	L1049.3,179.8z M993.9,195.1c-0.5,0.2-1.2,0-1.5-0.5c-0.5-0.6-0.2-1.2,0.4-1.7s14.5-10.3,29.1-12c0.6-0.1,1.2,0.4,1.4,1
	c0.1,0.7-0.4,1.3-1,1.4c-14.2,1.6-28.1,11.4-28.2,11.7L993.9,195.1z M1044.3,166.2c-0.4,0.2-1,0.1-1.2-0.4c-0.4-0.5-0.4-1.2-0.1-1.8
	c0.4-0.4,11-12.1,17-16.6c0.5-0.4,1.2-0.3,1.6,0.2c0.4,0.5,0.3,1.2-0.2,1.6c-5.7,4.4-16.7,16.2-16.6,16.5
	C1044.7,165.9,1044.5,166.1,1044.3,166.2L1044.3,166.2z M988.9,181.4c-0.5,0.2-1.1,0-1.5-0.5c-0.5-0.6-0.2-1.2,0.4-1.7
	c0.6-0.5,14.5-10.3,29.1-12c0.6,0,1.2,0.4,1.4,1c0.1,0.7-0.4,1.3-1,1.4c-14.2,1.6-28.1,11.4-28.2,11.7L988.9,181.4z M1039.2,152.5
	c-0.4,0.2-0.9,0.1-1.1-0.3c0,0,0,0,0,0c-0.4-0.5-0.4-1.2-0.1-1.8c0.4-0.4,11.1-12.1,17-16.6c0.5-0.4,1.2-0.3,1.6,0.2
	c0.4,0.5,0.3,1.2-0.2,1.6c-5.7,4.4-16.7,16.2-16.6,16.5C1039.7,152.2,1039.5,152.4,1039.2,152.5L1039.2,152.5z"/>
<text transform="matrix(1.18 0 0 1 0 409.0996)" class="st6 st13 st14">Sis</text>
<text transform="matrix(1.18 0 0 1 69.1597 409.0996)" class="st6 st13 st14">t</text>
<text transform="matrix(1.18 0 0 1 89.1729 409.0996)" class="st6 st13 st14">ema </text>
<text transform="matrix(1.18 0 0 1 214.1348 409.0996)" class="st6 st13 st14">I</text>
<text transform="matrix(1.18 0 0 1 229.4629 409.0996)" class="st6 st13 st14">n</text>
<text transform="matrix(1.18 0 0 1 263.3994 409.0996)" class="st6 st13 st14">t</text>
<text transform="matrix(1.18 0 0 1 283.4121 409.0996)" class="st6 st13 st14">e</text>
<text transform="matrix(1.18 0 0 1 314.2695 409.0996)" class="st6 st13 st14">g</text>
<text transform="matrix(1.18 0 0 1 348.3242 409.0996)" class="st6 st13 st14">r</text>
<text transform="matrix(1.18 0 0 1 368.1602 409.0996)" class="st6 st13 st14">ado </text>
<text transform="matrix(1.18 0 0 1 479.4458 409.0996)" class="st6 st13 st14">D</text>
<text transform="matrix(1.18 0 0 1 520.71 409.0996)" class="st6 st13 st14">e Biblio</text>
<text transform="matrix(1.18 0 0 1 710.207 409.0996)" class="st6 st13 st14">t</text>
<text transform="matrix(1.18 0 0 1 730.2197 409.0996)" class="st6 st13 st14">ecas </text>
<text transform="matrix(1.18 0 0 1 855.7949 409.0996)" class="st6 st13 st14">D</text>
<text transform="matrix(1.18 0 0 1 897.0479 409.0996)" class="st6 st13 st14">e UDELAS</text>
</svg>
