<svg id="e3d91524-6b62-443e-987f-f254d350d652" data-name="Capa 1" xmlns="http://www.w3.org/2000/svg" xmlns:xlink="http://www.w3.org/1999/xlink" viewBox="0 0 1151.06 422.15"><defs><style>.b7b68cd1-d7d9-40aa-afed-954944666da7{fill:#42b400;}.bf731505-6818-4948-967f-d06418328194{fill:#008ec6;}.e27bb51d-64cf-45bd-94fc-1e40d9499e05{fill:none;}.e9952d91-2b3a-4f28-b296-276a178ff3e1{fill:url(#ae0d6e94-161b-4a7a-8cec-141350071ee5);}.a49b7c2f-8270-4398-aa0b-0f4805f8cac2{fill:url(#f5175f44-a4bb-46eb-93f6-893f7f510393);}.fccd8c76-ab54-4c23-bb7e-a999940d3728{fill:url(#f54a1372-1f40-441d-bef8-f538b3b5cbba);}.beef62e9-beeb-4c13-838c-8584f788d5c2{font-size:172px;font-family:NeoGramCondensedW00-XBold;font-weight:700;}.b05974b5-d283-4c14-83d1-5716c131b907{letter-spacing:-0.04em;}.bd098082-d0ce-4a1e-afb7-1f946323067e{fill:#f2edda;}.efcb956b-28ff-47e9-bd83-39ffb8dcbb1a{fill:#aab1ba;}.ba527e33-bf08-4157-b7ed-caca2b73e132{fill:#51565f;}.bb920dda-3d77-4d93-b15f-f03997e0d5bb{font-size:52.19px;font-family:MyriadPro-Regular, Myriad Pro;}.a7ec9fe9-3b3f-4986-acfe-1b27f6b2bb9c{letter-spacing:-0.01em;}.a33a4db8-bb08-4ad6-8755-5a6820e263ea{letter-spacing:0em;}.b1b9358f-b539-4388-8bc4-6ab40dbf1d26{letter-spacing:0.01em;}.b2708cc3-8d7e-4b00-bbef-479a3ecd1d76{letter-spacing:0em;}.bcc2d52e-7d4c-47d0-a565-a29bb6a875a2{letter-spacing:-0.01em;}.b0990aef-6d88-4e37-ae77-72b0566722bb{letter-spacing:0em;}.fdf3aba1-480c-4297-a0b1-5b1fb77e061b{letter-spacing:0em;}.adf3ad8d-e699-4130-9e75-c72021f28fae{letter-spacing:0em;}</style><linearGradient id="ae0d6e94-161b-4a7a-8cec-141350071ee5" x1="-316.01" y1="850.37" x2="-316.01" y2="850.08" gradientTransform="matrix(0, 450.45, 484.82, 0, -411587.82, 142500.08)" gradientUnits="userSpaceOnUse"><stop offset="0" stop-color="#009ee0"/><stop offset="1" stop-color="#00628f"/></linearGradient><linearGradient id="f5175f44-a4bb-46eb-93f6-893f7f510393" x1="-314.18" y1="849.09" x2="-314.18" y2="848.81" gradientTransform="matrix(376.29, 0, 0, -472.22, 118821.07, 401041.39)" gradientUnits="userSpaceOnUse"><stop offset="0" stop-color="#ffec00"/><stop offset="1" stop-color="#d4b800"/></linearGradient><linearGradient id="f54a1372-1f40-441d-bef8-f538b3b5cbba" x1="-314.76" y1="849.1" x2="-314.76" y2="848.83" gradientTransform="matrix(511.54, 0, 0, -532.23, 161627.13, 451995.93)" xlink:href="#f5175f44-a4bb-46eb-93f6-893f7f510393"/></defs><title>logo-SIBUDELAS</title><path class="b7b68cd1-d7d9-40aa-afed-954944666da7" d="M320.84,214.3c-61.56,8.42-102.06,13.95-148.35,30.37-29.45,10.45-71,28.77-110.28,60.86,49.95-10.92,125.48-25.73,219.44-37.41,72.29-9,147.9-12.63,296.16-19.58,95.59.12,214.7,10.23,527-44.18,12.22-2.12,76.67-27.57,81.08-38.53,4.33-10.72-15-24.76-33.87-31.65-37.68-13.78-80.45-1.64-134.07,8.11-38.48,7-35.37,7-165.7,23.18-39.68,4.92-159.61,19.74-229,25.24-59.7,4.73-72.74,4.1-156.09,10.25C396.64,206.16,361.39,208.76,320.84,214.3Z" transform="translate(-61.42 54.21)"/><circle class="bf731505-6818-4948-967f-d06418328194" cx="1103.7" cy="148.52" r="99.78" transform="translate(156.82 878.15) rotate(-45)"/><g id="b7b23746-5272-4bdb-b3d1-c9f9152f6096" data-name="Layer1000"><path id="a722b57f-d43e-47ed-a605-64a43ee59ae7" data-name="path2" class="e27bb51d-64cf-45bd-94fc-1e40d9499e05" d="M538.43,75.61V228.5H696.71V75.61Z" transform="translate(-61.42 54.21)"/><path id="aed89cae-5afd-415f-9673-27f4b3d7345d" data-name="path12" class="e9952d91-2b3a-4f28-b296-276a178ff3e1" d="M601.45,142.52c.58-10,7.6-18.71,19.13-18.71,12.29,0,18.55,9.15,19.13,18.71ZM645,170.66a20.91,20.91,0,0,1-20.72,12.72c-14-.68-20.42-5.54-23.11-20.46h86.3C691.73,137.2,679.67,91,621.75,91c-41.48,0-70.51,26.45-70.51,62.91,0,40.29,32.07,60.07,69.81,60.07,10.59,0,51.25-3.9,65.35-43.29Z" transform="translate(-61.42 54.21)"/><g id="a51f3569-e043-4ef0-b0ac-d566fd9ccd7e" data-name="Layer1001"><path id="bc3b9929-0f9f-42a2-b392-0199449e0ba3" data-name="path22" class="a49b7c2f-8270-4398-aa0b-0f4805f8cac2" d="M548.66,212.89l0,.51-.1-2.18,0-2.13.2-2.34.24-1.72.44-2.33.61-2.59.77-2.69,1.27-3.69,1.3-3.29,1.38-3.12,1.89-3.91,2.56-4.79,2.05-3.56,2.36-3.85,2.42-3.76,2.37-3.5L572,159l2.9-3.93,2.78-3.64,5.42-6.8,3.51-4.24,5-5.82,3.44-3.89,4.7-5.15,3.68-3.88,3.67-3.77,4.5-4.42,3.47-3.27,2.57-2.36,2.74-2.44,3.85-3.32,1.54-1.24,3.16-2.59,3.16-2.45,2.17-1.64,3.4-2.45,2.7-1.85c18.26-9.39,9.76-3.9-.85-2.64L636,89l-4.23,2.24-4.18,2.32-3.3,1.92-3.66,2.21-3.43,2.16-1.72,1.11-2,1.34-4.18,2.85-4.22,3-2.76,2L598.6,113l-2.25,1.78-3.61,3-2.88,2.45L586.67,123l-3.35,3.08-1.6,1.51-2.5,2.44-3,3-2.56,2.7-2.29,2.5-2.28,2.59-1.36,1.6-1.69,2-1.85,2.34-2.08,2.73-2.44,3.43-2.1,3.14-2.07,3.36-1.71,3-1.24,2.34-1.2,2.44-1.47,3.3-.82,2-1.33,3.71-.81,2.63-1,3.84-.73,3.95-.34,2.65-.26,3.58,0,3.44.09,1.95.34,3.35.43,2.64.33,1.55.62,2.44.61,1.94,1.11,2.06Z" transform="translate(-61.42 54.21)"/><path id="bc7d6360-f835-4f60-a9ca-1248b63f56c4" data-name="path32" class="fccd8c76-ab54-4c23-bb7e-a999940d3728" d="M606.09,213l-10-2.07L593,212.41l-3.34,1.42-3.38,1.24-2.21.68-2.38.62-2.09.44-1.78.28-2.18.23-2,.06-1.9-.08-1.68-.2-1.46-.3-1.25-.37-1.06-.41-1.27-.63-1.33-.87-1.06-.94-.66-.72-.55-.71-.59-.9-.74-1.44-.57-1.49-.54-2.08-.24-1.57-.16-1.95v-1.66l.11-2.07.3-2.52.49-2.63.67-2.76.77-2.59,1.1-3.17.86-2.19.91-2.14,1-2.23,1.08-2.23,1.52-2.95,1.42-2.57,1.78-3.07,1.53-2.51,1.24-2,1.92-2.91,2-2.88,2-2.82,2-2.78,1-1.38,2.08-2.7,2.28-2.88,2-2.45,3.28-3.92,3.43-4,1.49-1.68,2.09-2.31,2-2.16,2.06-2.17,1.66-1.71,3.37-3.38,2.1-2,2.77-2.6,2.48-2.26L617,113l3.34-2.87,1.74-1.44,2.3-1.85,1.31-1,2.48-1.86,2.27-1.66,2.38-1.67,2.22-1.5,2.88-1.85,2.54-1.53,3-1.71,1.76-.94,2.77-1.38,2.91-1.33,2.56-1.06,1.9-.7,2.08-.7,1.4-.42,1.79-.47,1.73-.39,2.73-.47L666.9,86l1.41-.07h1.43l2,.14,1.18.17,1.62.36,1.24.39,1.22.51.8.41,1,.62.71.52.59.51.67.68.44.52.73,1,.44.72.51,1,.42,1,.4,1.17.28,1,.34,1.69.21,1.75.1,1.86v1.5l-.1,1.9-.18,1.68-.28,1.9-.31,1.62-.4,1.74,5.62.39.53-2.37.5-2.74.3-2.35.17-2.1,0-2.19-.12-2.87-.4-2.86-.4-1.69L689,91.76l-.51-1.25-.53-1.1-.58-1-.87-1.29-.84-1-1-1-1-.83-.92-.68-1.37-.87-.91-.5-1.24-.59-.94-.39-.9-.33-.85-.27-1.14-.31L674.19,80l-.89-.17L672,79.65l-1.15-.12-1-.07-1.58-.06H667l-1.6.06-2.28.19-1.11.13-1.27.19-1.72.3-1.64.34-2,.47-2.1.57-1.78.55-2,.67-1.15.42-1.53.58-.6.24-2.32,1-2.09,1-1.88.9-1.87.93-1.47.77-2,1.12-1.51.87-2.21,1.31-1.92,1.19-1.69,1.08-1.59,1.06L624,96.35l-2,1.42-1.09.78-3,2.25-1.75,1.36-1.77,1.4-1.62,1.31-1.15,1-1.4,1.19-2,1.69-2.36,2.09-2.49,2.28-2.71,2.56-3.83,3.77-2,2-3,3.18-3.41,3.68-1.77,2-4,4.57-2.23,2.63-2.07,2.49-2,2.38L575,144.12l-2.46,3.13-1.61,2.11-1.81,2.4-1.85,2.52-.9,1.26-1.39,2-1.57,2.28L561.94,162l-1.17,1.81-1.61,2.57L558,168.22l-1.55,2.66-.92,1.65-1,1.91-1.08,2.09-1,2L551.32,181l-1,2.24-1,2.67-.65,1.81-.88,2.8-.82,3.16-.41,2-.23,1.39-.17,1.25-.18,1.95-.07,1.44V203l.06,1.44.12,1.27.2,1.39.32,1.56.32,1.18.36,1.09.54,1.33.7,1.41.78,1.29.72,1,.82,1,.75.82.81.78.94.78.87.65.68.45.68.42.51.29.93.49,1,.49,1.25.52,1.15.42,1.5.46,1.33.34,1.75.35,1.32.2,1.77.18,1.47.09,2,0,1.64-.05,1.82-.14,2.32-.27,2.84-.49,1.26-.27.94-.22.84-.21,2.44-.68,2.15-.69,1.85-.65,1.82-.7,1.3-.53,2.35-1,2.2-1,2.47-1.25,2.74-1.48,1.65-1,1-.58Z" transform="translate(-61.42 54.21)"/></g></g><text class="beef62e9-beeb-4c13-838c-8584f788d5c2" transform="translate(11.61 268.77)">SIBUD</text><text class="beef62e9-beeb-4c13-838c-8584f788d5c2" transform="translate(643.22 268.77)">L<tspan class="b05974b5-d283-4c14-83d1-5716c131b907" x="89.96" y="0">A</tspan><tspan x="200.04" y="0">S</tspan></text><path class="e27bb51d-64cf-45bd-94fc-1e40d9499e05" d="M716.82-54h-.54C716.22-54.68,716.88-53.36,716.82-54Z" transform="translate(-61.42 54.21)"/><path class="bd098082-d0ce-4a1e-afb7-1f946323067e" d="M1101.64,135.43,1084.85,89.8A52.45,52.45,0,0,0,1063,92.66a151.1,151.1,0,0,0-34.14,17.74l4.2,11.41,32.74,89A151.35,151.35,0,0,1,1100,193a52.33,52.33,0,0,1,21.83-2.85s9.51-8.68,20.71-12.8c20.14-7.42,35.26-7.8,35.26-7.8l-32.74-89-4.2-11.4s-5.32-.64-14.27,2.66l13.43,36.5-13.43-36.5L1119,51.34c-15.39,13.43-34.14,38.46-34.14,38.46Z" transform="translate(-61.42 54.21)"/><path class="efcb956b-28ff-47e9-bd83-39ffb8dcbb1a" d="M1154,77.32l32.74,89a9.66,9.66,0,0,1-5.6,12.42l-56,20.59-3.35-9.12s9.51-8.68,20.71-12.8c20.14-7.42,35.26-7.8,35.26-7.8l-32.74-89,9-3.29Zm-32.18,112.85,3.36,9.12-56,20.6a9.67,9.67,0,0,1-12.32-5.83l-32.74-89,9-3.29,32.74,89A151.35,151.35,0,0,1,1100,193,52.33,52.33,0,0,1,1121.79,190.17Z" transform="translate(-61.42 54.21)"/><path class="ba527e33-bf08-4157-b7ed-caca2b73e132" d="M1181.53,179.84,1069.6,221a10.8,10.8,0,0,1-13.86-6.55l-32.74-89a1.19,1.19,0,1,1,2.24-.83l32.74,89a8.53,8.53,0,0,0,10.78,5.1l54.85-20.18-2.69-7.3a54.08,54.08,0,0,0-20.54,2.89,155,155,0,0,0-33.92,17.67,1.46,1.46,0,0,1-1,.1,1.3,1.3,0,0,1-.78-.75l-36.94-100.37a1.24,1.24,0,0,1,.48-1.47,159.42,159.42,0,0,1,34.36-17.82A49.77,49.77,0,0,1,1085,88.73a1.29,1.29,0,0,1,1,.66l32.82,89.19c4.43-5.25,18.7-22.42,33.17-34.22l-33.5-91c-14.5,13.1-27.65,29.86-27.56,30.09a1.25,1.25,0,0,1-1.74.12,1.3,1.3,0,0,1-.14-1.76c.14-.32,13.85-18.31,29.33-31.52.36-.39.67-.25,1.2-.18a1.27,1.27,0,0,1,.79.74l34.41,93.53a1.31,1.31,0,0,1-.25,1.38c-17.26,13.87-34.61,35.8-34.75,36.11a1.08,1.08,0,0,1-1.12.41,1.28,1.28,0,0,1-1-.67l-33.33-90.55a54.08,54.08,0,0,0-20.54,2.89,152.21,152.21,0,0,0-33.11,17.11l36.1,98.08a153.23,153.23,0,0,1,33.11-17.1,49.23,49.23,0,0,1,21.83-2.86c1.9-1.73,10.63-9.09,20.7-12.8a130.3,130.3,0,0,1,34-7.84l-36-97.85a32,32,0,0,0-4,.71c-.76,0-1.38-.27-1.4-1a1,1,0,0,1,1-1.4c3.08-.62,5-.82,5-.82a1.61,1.61,0,0,1,1.32.81l36.93,100.36a1.27,1.27,0,0,1-.11,1.08c-.14.31-.59.48-1,.64-.23.08-15.12.38-34.82,7.63-9.18,3.38-17.4,10-19.75,11.94l2.68,7.3L1181,177.7a8.53,8.53,0,0,0,4.9-10.87l-32.74-89a1.19,1.19,0,1,1,2.24-.82l32.74,89A11.11,11.11,0,0,1,1181.53,179.84Zm-111.09,2a1.21,1.21,0,0,1-1.46-.5c-.47-.6-.2-1.22.39-1.69s14.53-10.27,29.13-12a1.32,1.32,0,0,1,1.4,1,1.3,1.3,0,0,1-1,1.4c-14.16,1.59-28.1,11.38-28.24,11.69ZM1120.81,153c-.45.16-1,.1-1.15-.36a1.63,1.63,0,0,1-.14-1.76c.37-.39,11.06-12.1,17-16.62a1.14,1.14,0,0,1,1.59.19A1.17,1.17,0,0,1,1138,136c-5.73,4.45-16.65,16.23-16.56,16.46A.91.91,0,0,1,1120.81,153Zm-55.41,15.21a1.24,1.24,0,0,1-1.46-.5c-.47-.6-.19-1.23.4-1.7s14.52-10.27,29.13-12a1.35,1.35,0,0,1,1.4,1,1.32,1.32,0,0,1-1,1.41c-14.16,1.58-28.1,11.37-28.24,11.69Zm50.37-28.9c-.45.16-1,.1-1.15-.36a1.63,1.63,0,0,1-.14-1.76c.37-.39,11.06-12.09,17-16.62a1.16,1.16,0,0,1,1.59.19,1.19,1.19,0,0,1-.16,1.62c-5.74,4.44-16.65,16.23-16.57,16.45A.86.86,0,0,1,1115.77,139.29Zm-55.41,15.21a1.21,1.21,0,0,1-1.45-.5c-.48-.6-.2-1.22.39-1.7s14.52-10.26,29.13-12a1.32,1.32,0,0,1,1.4,1,1.31,1.31,0,0,1-1,1.4c-14.16,1.59-28.09,11.38-28.23,11.69Zm50.37-28.9a.83.83,0,0,1-1.14-.35,1.63,1.63,0,0,1-.14-1.76c.36-.4,11-12.1,17-16.63a1.17,1.17,0,0,1,1.6.19,1.2,1.2,0,0,1-.17,1.62c-5.74,4.44-16.65,16.23-16.57,16.46A.84.84,0,0,1,1110.73,125.6Zm-55.4,15.22a1.23,1.23,0,0,1-1.46-.51c-.48-.6-.2-1.22.39-1.69s14.53-10.27,29.13-12a1.32,1.32,0,0,1,1.4,1,1.31,1.31,0,0,1-1,1.41c-14.16,1.58-28.1,11.37-28.24,11.68Zm50.37-28.9c-.45.16-1,.1-1.15-.36a1.63,1.63,0,0,1-.14-1.76c.36-.39,11-12.1,17-16.62a1.14,1.14,0,0,1,1.59.19,1.17,1.17,0,0,1-.17,1.61c-5.73,4.45-16.65,16.23-16.56,16.46A.91.91,0,0,1,1105.7,111.92Zm-55.41,15.21a1.24,1.24,0,0,1-1.46-.5c-.47-.6-.19-1.22.4-1.7s14.52-10.27,29.13-12a1.35,1.35,0,0,1,1.4,1,1.32,1.32,0,0,1-1,1.41c-14.16,1.59-28.1,11.38-28.24,11.69Zm50.37-28.9a.84.84,0,0,1-1.15-.35,1.65,1.65,0,0,1-.14-1.77c.37-.39,11.06-12.09,17-16.62a1.16,1.16,0,0,1,1.59.19,1.19,1.19,0,0,1-.16,1.62c-5.74,4.44-16.66,16.23-16.57,16.46A.86.86,0,0,1,1100.66,98.23Z" transform="translate(-61.42 54.21)"/><text x="-61.42" y="54.21"/><text class="bb920dda-3d77-4d93-b15f-f03997e0d5bb" transform="translate(0 409.1) scale(1.18 1)">Sis<tspan class="a7ec9fe9-3b3f-4986-acfe-1b27f6b2bb9c" x="58.61" y="0">t</tspan><tspan class="a33a4db8-bb08-4ad6-8755-5a6820e263ea" x="75.57" y="0">ema </tspan><tspan class="b1b9358f-b539-4388-8bc4-6ab40dbf1d26" x="181.47" y="0">I</tspan><tspan class="b2708cc3-8d7e-4b00-bbef-479a3ecd1d76" x="194.46" y="0">n</tspan><tspan class="a7ec9fe9-3b3f-4986-acfe-1b27f6b2bb9c" x="223.22" y="0">t</tspan><tspan x="240.18" y="0">e</tspan><tspan class="bcc2d52e-7d4c-47d0-a565-a29bb6a875a2" x="266.33" y="0">g</tspan><tspan class="b0990aef-6d88-4e37-ae77-72b0566722bb" x="295.19" y="0">r</tspan><tspan x="312" y="0">ado </tspan><tspan class="fdf3aba1-480c-4297-a0b1-5b1fb77e061b" x="406.31" y="0">D</tspan><tspan x="441.28" y="0">e Biblio</tspan><tspan class="a7ec9fe9-3b3f-4986-acfe-1b27f6b2bb9c" x="601.87" y="0">t</tspan><tspan class="adf3ad8d-e699-4130-9e75-c72021f28fae" x="618.83" y="0">ecas </tspan><tspan class="fdf3aba1-480c-4297-a0b1-5b1fb77e061b" x="725.25" y="0">D</tspan><tspan class="adf3ad8d-e699-4130-9e75-c72021f28fae" x="760.21" y="0">e UDELAS</tspan></text></svg>